# Blender 4.3.2
# www.blender.org
mtllib river.mtl
o Cube
v 17.090931 0.000000 -11.846223
v 22.844131 0.000000 -9.091995
v 20.849495 -1.728019 -1.428104
v 17.090931 1.360099 -11.846223
v 9.310757 1.360099 -9.748332
v 10.653893 -2.240633 -3.369353
v 24.845482 1.360099 -5.450541
v 17.268612 1.415126 -2.241473
v 14.401805 0.680049 -12.970244
v 19.285748 0.680049 -0.691910
v 8.259340 -1.294275 -4.746821
v 25.908207 0.680049 -7.461791
v 22.844131 -1.360099 -9.091995
v 12.373583 -1.360099 -12.252573
v 24.845482 -1.360099 -5.450541
v 22.844131 1.360099 -9.091995
v 12.373583 1.360099 -12.252573
v 15.490744 -1.994328 -0.868603
v 22.073246 1.360099 -2.309462
v 11.224822 1.415126 -5.632536
v 14.401805 -0.680049 -12.970244
v 18.061996 -1.047970 0.189449
v 8.276154 0.680049 -6.518493
v 25.908207 -0.680049 -7.461791
v 17.090931 -1.360099 -11.846223
v 9.293943 -1.974324 -7.976661
v 25.908207 1.360099 -7.461791
v 25.908207 -1.360099 -7.461791
v 20.363731 1.360099 -1.179635
v 17.916229 -2.095940 0.583081
v 14.401805 1.360099 -12.970244
v 14.401805 -1.360099 -12.970244
v 8.276155 1.360099 -7.961762
v 8.242527 -2.588550 -4.418420
v 10.345360 -1.360099 -11.534902
v 19.780056 -1.360099 -10.722200
v 25.908207 0.000000 -7.461791
v 8.276154 0.000000 -5.075223
v 18.207764 0.000000 -0.204185
v 14.401805 0.000000 -12.970244
v 14.173491 1.470154 -3.303310
v 23.782759 1.360099 -3.439290
v 13.065258 -1.892716 -2.320287
v 10.345360 1.360099 -11.534902
v 19.780056 1.360099 -10.722200
v 23.782759 -1.360099 -3.439290
v 19.780056 0.000000 -10.722200
v 23.782759 0.000000 -3.439290
v 16.717230 -1.360099 -6.774690
v 10.345360 0.000000 -11.534902
v 13.654405 0.000000 -2.827179
v 16.717230 1.360099 -6.774690
v 19.780056 -0.680049 -10.722200
v 19.780056 0.680049 -10.722200
v 20.995262 0.000000 -1.821737
v 24.845482 0.000000 -5.450541
v 23.782759 -0.680049 -3.439290
v 23.782759 0.680049 -3.439290
v 14.891244 -1.626407 -4.547488
v 18.248642 -1.360099 -8.748445
v 13.531295 -1.360099 -9.154796
v 20.249994 -1.360099 -5.106990
v 12.373583 0.000000 -12.252573
v 9.310757 0.000000 -8.305061
v 10.345360 -0.680049 -11.534902
v 10.345360 0.680049 -11.534902
v 10.965279 0.000000 -3.951201
v 15.931085 0.000000 -1.515682
v 13.359831 -0.946358 -2.573733
v 13.913948 0.735077 -3.065244
v 15.445360 1.415126 -5.039000
v 18.248642 1.360099 -8.748445
v 20.249996 1.360099 -5.106989
v 13.531295 1.360099 -9.154796
v 15.311112 1.360099 -10.500509
v 21.547062 1.360099 -7.099493
v 18.759302 1.387612 -3.674231
v 16.599848 0.707563 -1.878577
v 15.710915 -0.997164 -1.192142
v 10.809586 -1.120317 -3.660277
v 9.310757 0.680049 -9.026697
v 9.302350 -0.987162 -8.140862
v 12.373583 -0.680049 -12.252573
v 21.547062 -1.360099 -7.099493
v 15.311112 -1.360099 -10.500509
v 12.092594 -1.800366 -6.262074
v 24.845482 0.680049 -5.450541
v 24.845482 -0.680049 -5.450541
v 20.922379 -0.864010 -1.624921
v 17.090931 0.680049 -11.846223
v 17.090931 -0.680049 -11.846223
v 22.844131 -0.680049 -9.091995
v 22.844131 0.680049 -9.091995
v 21.534252 0.680049 -2.065600
v 17.870369 -1.677213 -2.987796
v 12.373583 0.680049 -12.252573
v 11.095051 0.707563 -4.791868
v 12.378058 1.387612 -7.393666
v 17.090931 0.000000 -11.846223
v 22.844131 0.000000 -9.091995
v 20.849495 -1.728019 -1.428104
v 17.090931 1.360099 -11.846223
v 9.310757 1.360099 -9.748332
v 10.653893 -2.240633 -3.369353
v 24.845482 1.360099 -5.450541
v 17.268612 1.415126 -2.241473
v 14.401805 0.680049 -12.970244
v 19.285748 0.680049 -0.691910
v 8.259340 -1.294275 -4.746821
v 25.908207 0.680049 -7.461791
v 22.844131 -1.360099 -9.091995
v 12.373583 -1.360099 -12.252573
v 24.845482 -1.360099 -5.450541
v 22.844131 1.360099 -9.091995
v 12.373583 1.360099 -12.252573
v 15.490744 -1.994328 -0.868603
v 22.073246 1.360099 -2.309462
v 11.224822 1.415126 -5.632536
v 14.401805 -0.680049 -12.970244
v 18.061996 -1.047970 0.189449
v 8.276154 0.680049 -6.518493
v 25.908207 -0.680049 -7.461791
v 17.090931 -1.360099 -11.846223
v 9.293943 -1.974324 -7.976661
v 25.908207 1.360099 -7.461791
v 25.908207 -1.360099 -7.461791
v 20.363731 1.360099 -1.179635
v 17.916229 -2.095940 0.583081
v 14.401805 1.360099 -12.970244
v 14.401805 -1.360099 -12.970244
v 8.276155 1.360099 -7.961762
v 8.242527 -2.588550 -4.418420
v 10.345360 -1.360099 -11.534902
v 19.780056 -1.360099 -10.722200
v 25.908207 0.000000 -7.461791
v 8.276154 0.000000 -5.075223
v 18.207764 0.000000 -0.204185
v 14.401805 0.000000 -12.970244
v 14.173491 1.470154 -3.303310
v 23.782759 1.360099 -3.439290
v 13.065258 -1.892716 -2.320287
v 10.345360 1.360099 -11.534902
v 19.780056 1.360099 -10.722200
v 23.782759 -1.360099 -3.439290
v 19.780056 0.000000 -10.722200
v 23.782759 0.000000 -3.439290
v 16.717230 -1.360099 -6.774690
v 10.345360 0.000000 -11.534902
v 13.654405 0.000000 -2.827179
v 16.717230 1.360099 -6.774690
v 19.780056 -0.680049 -10.722200
v 19.780056 0.680049 -10.722200
v 20.995262 0.000000 -1.821737
v 24.845482 0.000000 -5.450541
v 23.782759 -0.680049 -3.439290
v 23.782759 0.680049 -3.439290
v 14.891244 -1.626407 -4.547488
v 18.248642 -1.360099 -8.748445
v 13.531295 -1.360099 -9.154796
v 20.249994 -1.360099 -5.106990
v 12.373583 0.000000 -12.252573
v 9.310757 0.000000 -8.305061
v 10.345360 -0.680049 -11.534902
v 10.345360 0.680049 -11.534902
v 10.965279 0.000000 -3.951201
v 15.931085 0.000000 -1.515682
v 13.359831 -0.946358 -2.573733
v 13.913948 0.735077 -3.065244
v 15.445360 1.415126 -5.039000
v 18.248642 1.360099 -8.748445
v 20.249996 1.360099 -5.106989
v 13.531295 1.360099 -9.154796
v 15.311112 1.360099 -10.500509
v 21.547062 1.360099 -7.099493
v 18.759302 1.387612 -3.674231
v 16.599848 0.707563 -1.878577
v 15.710915 -0.997164 -1.192142
v 10.809586 -1.120317 -3.660277
v 9.310757 0.680049 -9.026697
v 9.302350 -0.987162 -8.140862
v 12.373583 -0.680049 -12.252573
v 21.547062 -1.360099 -7.099493
v 15.311112 -1.360099 -10.500509
v 12.092594 -1.800366 -6.262074
v 24.845482 0.680049 -5.450541
v 24.845482 -0.680049 -5.450541
v 20.922379 -0.864010 -1.624921
v 17.090931 0.680049 -11.846223
v 17.090931 -0.680049 -11.846223
v 22.844131 -0.680049 -9.091995
v 22.844131 0.680049 -9.091995
v 21.534252 0.680049 -2.065600
v 17.870369 -1.677213 -2.987796
v 12.373583 0.680049 -12.252573
v 11.095051 0.707563 -4.791868
v 12.378058 1.387612 -7.393666
v 8.091602 0.000000 -15.081936
v 13.844804 0.000000 -12.327708
v 11.850166 -1.728019 -4.663818
v 8.091602 1.360099 -15.081936
v 0.311429 1.360099 -12.984046
v 1.654565 -2.240633 -6.605067
v 15.846156 1.360099 -8.686255
v 8.269283 1.415126 -5.477186
v 5.402477 0.680049 -16.205959
v 10.286419 0.680049 -3.927624
v -0.739988 -1.294275 -7.982535
v 16.908880 0.680049 -10.697504
v 13.844804 -1.360099 -12.327708
v 3.374253 -1.360099 -15.488286
v 15.846156 -1.360099 -8.686255
v 13.844804 1.360099 -12.327708
v 3.374254 1.360099 -15.488287
v 6.491416 -1.994328 -4.104316
v 13.073917 1.360099 -5.545176
v 2.225494 1.415126 -8.868250
v 5.402477 -0.680049 -16.205959
v 9.062670 -1.047970 -3.046265
v -0.723174 0.680049 -9.754206
v 16.908880 -0.680049 -10.697504
v 8.091602 -1.360099 -15.081936
v 0.294616 -1.974324 -11.212374
v 16.908880 1.360099 -10.697504
v 16.908880 -1.360099 -10.697504
v 11.364402 1.360099 -4.415349
v 8.916902 -2.095940 -2.652632
v 5.402477 1.360099 -16.205959
v 5.402477 -1.360099 -16.205959
v -0.723174 1.360099 -11.197475
v -0.756801 -2.588550 -7.654133
v 1.346031 -1.360099 -14.770616
v 10.780727 -1.360099 -13.957913
v 16.908880 0.000000 -10.697504
v -0.723174 0.000000 -8.310936
v 9.208437 0.000000 -3.439898
v 5.402477 0.000000 -16.205959
v 5.174163 1.470154 -6.539023
v 14.783431 1.360099 -6.675004
v 4.065930 -1.892716 -5.556000
v 1.346031 1.360099 -14.770616
v 10.780727 1.360099 -13.957913
v 14.783431 -1.360099 -6.675004
v 10.780727 0.000000 -13.957913
v 14.783431 0.000000 -6.675004
v 7.717903 -1.360099 -10.010404
v 1.346031 0.000000 -14.770616
v 4.655077 0.000000 -6.062892
v 7.717903 1.360099 -10.010404
v 10.780727 -0.680049 -13.957913
v 10.780727 0.680049 -13.957913
v 11.995934 0.000000 -5.057450
v 15.846156 0.000000 -8.686255
v 14.783431 -0.680049 -6.675004
v 14.783431 0.680049 -6.675004
v 5.891917 -1.626407 -7.783201
v 9.249315 -1.360099 -11.984159
v 4.531968 -1.360099 -12.390510
v 11.250667 -1.360099 -8.342704
v 3.374254 0.000000 -15.488287
v 0.311428 0.000000 -11.540776
v 1.346031 -0.680049 -14.770616
v 1.346031 0.680049 -14.770616
v 1.965952 0.000000 -7.186914
v 6.931756 0.000000 -4.751395
v 4.360504 -0.946358 -5.809446
v 4.914620 0.735077 -6.300958
v 6.446033 1.415126 -8.274714
v 9.249315 1.360099 -11.984159
v 11.250668 1.360099 -8.342703
v 4.531968 1.360099 -12.390510
v 6.311785 1.360099 -13.736222
v 12.547735 1.360099 -10.335206
v 9.759974 1.387612 -6.909945
v 7.600520 0.707563 -5.114291
v 6.711587 -0.997164 -4.427856
v 1.810259 -1.120317 -6.895990
v 0.311429 0.680049 -12.262410
v 0.303023 -0.987162 -11.376575
v 3.374254 -0.680049 -15.488287
v 12.547735 -1.360099 -10.335206
v 6.311785 -1.360099 -13.736222
v 3.093266 -1.800366 -9.497788
v 15.846156 0.680049 -8.686255
v 15.846156 -0.680049 -8.686255
v 11.923050 -0.864010 -4.860635
v 8.091602 0.680049 -15.081936
v 8.091602 -0.680049 -15.081936
v 13.844804 -0.680049 -12.327708
v 13.844804 0.680049 -12.327708
v 12.534925 0.680049 -5.301313
v 8.871041 -1.677213 -6.223510
v 3.374254 0.680049 -15.488287
v 2.095723 0.707563 -8.027582
v 3.378731 1.387612 -10.629380
v 8.091602 0.000000 -15.081936
v 13.844804 0.000000 -12.327708
v 11.850166 -1.728019 -4.663818
v 8.091602 1.360099 -15.081936
v 0.311429 1.360099 -12.984046
v 1.654565 -2.240633 -6.605067
v 15.846156 1.360099 -8.686255
v 8.269283 1.415126 -5.477186
v 5.402477 0.680049 -16.205959
v 10.286419 0.680049 -3.927624
v -0.739988 -1.294275 -7.982535
v 16.908880 0.680049 -10.697504
v 13.844804 -1.360099 -12.327708
v 3.374253 -1.360099 -15.488286
v 15.846156 -1.360099 -8.686255
v 13.844804 1.360099 -12.327708
v 3.374254 1.360099 -15.488287
v 6.491416 -1.994328 -4.104316
v 13.073917 1.360099 -5.545176
v 2.225494 1.415126 -8.868250
v 5.402477 -0.680049 -16.205959
v 9.062670 -1.047970 -3.046265
v -0.723174 0.680049 -9.754206
v 16.908880 -0.680049 -10.697504
v 8.091602 -1.360099 -15.081936
v 0.294616 -1.974324 -11.212374
v 16.908880 1.360099 -10.697504
v 16.908880 -1.360099 -10.697504
v 11.364402 1.360099 -4.415349
v 8.916902 -2.095940 -2.652632
v 5.402477 1.360099 -16.205959
v 5.402477 -1.360099 -16.205959
v -0.723174 1.360099 -11.197475
v -0.756801 -2.588550 -7.654133
v 1.346031 -1.360099 -14.770616
v 10.780727 -1.360099 -13.957913
v 16.908880 0.000000 -10.697504
v -0.723174 0.000000 -8.310936
v 9.208437 0.000000 -3.439898
v 5.402477 0.000000 -16.205959
v 5.174163 1.470154 -6.539023
v 14.783431 1.360099 -6.675004
v 4.065930 -1.892716 -5.556000
v 1.346031 1.360099 -14.770616
v 10.780727 1.360099 -13.957913
v 14.783431 -1.360099 -6.675004
v 10.780727 0.000000 -13.957913
v 14.783431 0.000000 -6.675004
v 7.717903 -1.360099 -10.010404
v 1.346031 0.000000 -14.770616
v 4.655077 0.000000 -6.062892
v 7.717903 1.360099 -10.010404
v 10.780727 -0.680049 -13.957913
v 10.780727 0.680049 -13.957913
v 11.995934 0.000000 -5.057450
v 15.846156 0.000000 -8.686255
v 14.783431 -0.680049 -6.675004
v 14.783431 0.680049 -6.675004
v 5.891917 -1.626407 -7.783201
v 9.249315 -1.360099 -11.984159
v 4.531968 -1.360099 -12.390510
v 11.250667 -1.360099 -8.342704
v 3.374254 0.000000 -15.488287
v 0.311428 0.000000 -11.540776
v 1.346031 -0.680049 -14.770616
v 1.346031 0.680049 -14.770616
v 1.965952 0.000000 -7.186914
v 6.931756 0.000000 -4.751395
v 4.360504 -0.946358 -5.809446
v 4.914620 0.735077 -6.300958
v 6.446033 1.415126 -8.274714
v 9.249315 1.360099 -11.984159
v 11.250668 1.360099 -8.342703
v 4.531968 1.360099 -12.390510
v 6.311785 1.360099 -13.736222
v 12.547735 1.360099 -10.335206
v 9.759974 1.387612 -6.909945
v 7.600520 0.707563 -5.114291
v 6.711587 -0.997164 -4.427856
v 1.810259 -1.120317 -6.895990
v 0.311429 0.680049 -12.262410
v 0.303023 -0.987162 -11.376575
v 3.374254 -0.680049 -15.488287
v 12.547735 -1.360099 -10.335206
v 6.311785 -1.360099 -13.736222
v 3.093266 -1.800366 -9.497788
v 15.846156 0.680049 -8.686255
v 15.846156 -0.680049 -8.686255
v 11.923050 -0.864010 -4.860635
v 8.091602 0.680049 -15.081936
v 8.091602 -0.680049 -15.081936
v 13.844804 -0.680049 -12.327708
v 13.844804 0.680049 -12.327708
v 12.534925 0.680049 -5.301313
v 8.871041 -1.677213 -6.223510
v 3.374254 0.680049 -15.488287
v 2.095723 0.707563 -8.027582
v 3.378731 1.387612 -10.629380
v 0.811248 0.000000 -20.845551
v 6.564450 0.000000 -18.091324
v 4.569811 -1.728019 -10.427432
v 0.811248 1.360099 -20.845551
v -6.968926 1.360099 -18.747662
v -5.625791 -2.240633 -12.368682
v 8.565801 1.360099 -14.449868
v 0.988929 1.415126 -11.240800
v -1.877877 0.680049 -21.969574
v 3.006064 0.680049 -9.691237
v -8.020343 -1.294275 -13.746150
v 9.628526 0.680049 -16.461119
v 6.564450 -1.360099 -18.091324
v -3.906100 -1.360099 -21.251900
v 8.565801 -1.360099 -14.449868
v 6.564450 1.360099 -18.091324
v -3.906100 1.360099 -21.251904
v -0.788939 -1.994328 -9.867930
v 5.793562 1.360099 -11.308791
v -5.054860 1.415126 -14.631864
v -1.877877 -0.680049 -21.969574
v 1.782314 -1.047970 -8.809879
v -8.003530 0.680049 -15.517821
v 9.628526 -0.680049 -16.461119
v 0.811248 -1.360099 -20.845551
v -6.985740 -1.974324 -16.975990
v 9.628526 1.360099 -16.461119
v 9.628526 -1.360099 -16.461119
v 4.084048 1.360099 -10.178964
v 1.636547 -2.095940 -8.416246
v -1.877877 1.360099 -21.969574
v -1.877877 -1.360099 -21.969574
v -8.003530 1.360099 -16.961090
v -8.037156 -2.588550 -13.417748
v -5.934321 -1.360099 -20.534229
v 3.500374 -1.360099 -19.721531
v 9.628526 0.000000 -16.461119
v -8.003530 0.000000 -14.074551
v 1.928082 0.000000 -9.203513
v -1.877877 0.000000 -21.969574
v -2.106191 1.470154 -12.302638
v 7.503076 1.360099 -12.438619
v -3.214424 -1.892716 -11.319614
v -5.934321 1.360099 -20.534229
v 3.500374 1.360099 -19.721531
v 7.503076 -1.360099 -12.438619
v 3.500374 0.000000 -19.721531
v 7.503076 0.000000 -12.438619
v 0.437549 -1.360099 -15.774018
v -5.934321 0.000000 -20.534229
v -2.625278 0.000000 -11.826507
v 0.437549 1.360099 -15.774018
v 3.500374 -0.680049 -19.721531
v 3.500374 0.680049 -19.721531
v 4.715579 0.000000 -10.821065
v 8.565801 0.000000 -14.449868
v 7.503076 -0.680049 -12.438619
v 7.503076 0.680049 -12.438619
v -1.388438 -1.626407 -13.546815
v 1.968959 -1.360099 -17.747776
v -2.748387 -1.360099 -18.154125
v 3.970313 -1.360099 -14.106318
v -3.906100 0.000000 -21.251904
v -6.968926 0.000000 -17.304390
v -5.934321 -0.680049 -20.534229
v -5.934321 0.680049 -20.534229
v -5.314404 0.000000 -12.950529
v -0.348598 0.000000 -10.515010
v -2.919850 -0.946358 -11.573061
v -2.365735 0.735077 -12.064572
v -0.834322 1.415126 -14.038328
v 1.968959 1.360099 -17.747776
v 3.970313 1.360099 -14.106318
v -2.748387 1.360099 -18.154125
v -0.968569 1.360099 -19.499836
v 5.267381 1.360099 -16.098820
v 2.479621 1.387612 -12.673559
v 0.320166 0.707563 -10.877906
v -0.568767 -0.997164 -10.191470
v -5.470096 -1.120317 -12.659605
v -6.968925 0.680049 -18.026024
v -6.977332 -0.987162 -17.140190
v -3.906100 -0.680049 -21.251904
v 5.267381 -1.360099 -16.098820
v -0.968569 -1.360099 -19.499836
v -4.187089 -1.800366 -15.261403
v 8.565801 0.680049 -14.449868
v 8.565801 -0.680049 -14.449868
v 4.642695 -0.864010 -10.624249
v 0.811248 0.680049 -20.845551
v 0.811248 -0.680049 -20.845551
v 6.564450 -0.680049 -18.091324
v 6.564450 0.680049 -18.091324
v 5.254571 0.680049 -11.064928
v 1.590686 -1.677213 -11.987124
v -3.906100 0.680049 -21.251904
v -5.184632 0.707563 -13.791196
v -3.901624 1.387612 -16.392994
v 0.811248 0.000000 -20.845551
v 6.564450 0.000000 -18.091324
v 4.569811 -1.728019 -10.427432
v 0.811248 1.360099 -20.845551
v -6.968926 1.360099 -18.747662
v -5.625791 -2.240633 -12.368682
v 8.565801 1.360099 -14.449868
v 0.988929 1.415126 -11.240800
v -1.877877 0.680049 -21.969574
v 3.006064 0.680049 -9.691237
v -8.020343 -1.294275 -13.746150
v 9.628526 0.680049 -16.461119
v 6.564450 -1.360099 -18.091324
v -3.906100 -1.360099 -21.251900
v 8.565801 -1.360099 -14.449868
v 6.564450 1.360099 -18.091324
v -3.906100 1.360099 -21.251904
v -0.788939 -1.994328 -9.867930
v 5.793562 1.360099 -11.308791
v -5.054860 1.415126 -14.631864
v -1.877877 -0.680049 -21.969574
v 1.782314 -1.047970 -8.809879
v -8.003530 0.680049 -15.517821
v 9.628526 -0.680049 -16.461119
v 0.811248 -1.360099 -20.845551
v -6.985740 -1.974324 -16.975990
v 9.628526 1.360099 -16.461119
v 9.628526 -1.360099 -16.461119
v 4.084048 1.360099 -10.178964
v 1.636547 -2.095940 -8.416246
v -1.877877 1.360099 -21.969574
v -1.877877 -1.360099 -21.969574
v -8.003530 1.360099 -16.961090
v -8.037156 -2.588550 -13.417748
v -5.934321 -1.360099 -20.534229
v 3.500374 -1.360099 -19.721531
v 9.628526 0.000000 -16.461119
v -8.003530 0.000000 -14.074551
v 1.928082 0.000000 -9.203513
v -1.877877 0.000000 -21.969574
v -2.106191 1.470154 -12.302638
v 7.503076 1.360099 -12.438619
v -3.214424 -1.892716 -11.319614
v -5.934321 1.360099 -20.534229
v 3.500374 1.360099 -19.721531
v 7.503076 -1.360099 -12.438619
v 3.500374 0.000000 -19.721531
v 7.503076 0.000000 -12.438619
v 0.437549 -1.360099 -15.774018
v -5.934321 0.000000 -20.534229
v -2.625278 0.000000 -11.826507
v 0.437549 1.360099 -15.774018
v 3.500374 -0.680049 -19.721531
v 3.500374 0.680049 -19.721531
v 4.715579 0.000000 -10.821065
v 8.565801 0.000000 -14.449868
v 7.503076 -0.680049 -12.438619
v 7.503076 0.680049 -12.438619
v -1.388438 -1.626407 -13.546815
v 1.968959 -1.360099 -17.747776
v -2.748387 -1.360099 -18.154125
v 3.970313 -1.360099 -14.106318
v -3.906100 0.000000 -21.251904
v -6.968926 0.000000 -17.304390
v -5.934321 -0.680049 -20.534229
v -5.934321 0.680049 -20.534229
v -5.314404 0.000000 -12.950529
v -0.348598 0.000000 -10.515010
v -2.919850 -0.946358 -11.573061
v -2.365735 0.735077 -12.064572
v -0.834322 1.415126 -14.038328
v 1.968959 1.360099 -17.747776
v 3.970313 1.360099 -14.106318
v -2.748387 1.360099 -18.154125
v -0.968569 1.360099 -19.499836
v 5.267381 1.360099 -16.098820
v 2.479621 1.387612 -12.673559
v 0.320166 0.707563 -10.877906
v -0.568767 -0.997164 -10.191470
v -5.470096 -1.120317 -12.659605
v -6.968925 0.680049 -18.026024
v -6.977332 -0.987162 -17.140190
v -3.906100 -0.680049 -21.251904
v 5.267381 -1.360099 -16.098820
v -0.968569 -1.360099 -19.499836
v -4.187089 -1.800366 -15.261403
v 8.565801 0.680049 -14.449868
v 8.565801 -0.680049 -14.449868
v 4.642695 -0.864010 -10.624249
v 0.811248 0.680049 -20.845551
v 0.811248 -0.680049 -20.845551
v 6.564450 -0.680049 -18.091324
v 6.564450 0.680049 -18.091324
v 5.254571 0.680049 -11.064928
v 1.590686 -1.677213 -11.987124
v -3.906100 0.680049 -21.251904
v -5.184632 0.707563 -13.791196
v -3.901624 1.387612 -16.392994
vn -0.9520 -0.0545 -0.3011
vn -0.9542 -0.0530 -0.2945
vn -0.9563 -0.0239 -0.2913
vn -0.7412 -0.5684 -0.3571
vn -0.8277 -0.4751 -0.2985
vn -0.9258 -0.1771 -0.3339
vn -0.3781 0.3120 0.8716
vn -0.4030 0.3142 0.8596
vn -0.4048 0.2542 0.8784
vn -0.4651 0.3659 0.8061
vn -0.4661 0.3659 0.8055
vn -0.4668 0.3630 0.8064
vn -0.2456 0.7122 0.6576
vn -0.2978 0.7426 0.5998
vn -0.3728 0.5509 0.7467
vn 0.0112 0.9998 -0.0163
vn 0.0056 1.0000 -0.0037
vn 0.0115 0.9999 0.0036
vn -0.0000 1.0000 -0.0000
vn -0.0052 0.9999 -0.0110
vn -0.3443 0.8109 0.4731
vn -0.3336 -0.0000 -0.9427
vn 0.0371 -0.9925 -0.1169
vn 0.5260 -0.1780 0.8316
vn 0.4697 -0.0000 -0.8828
vn 0.3857 -0.0000 -0.9226
vn 0.5038 0.2018 0.8399
vn 0.8842 -0.0000 0.4672
vn 0.1283 -0.9902 -0.0549
vn -0.0000 -1.0000 -0.0000
vn -0.9535 -0.0248 -0.3002
vn -0.8779 -0.2244 -0.4230
vn -0.3830 0.2551 0.8878
vn -0.4657 0.3629 0.8071
vn -0.3019 0.5256 0.7954
vn 0.0171 0.9998 -0.0111
vn 0.1525 -0.9830 -0.1018
vn 0.1100 -0.9868 -0.1188
vn 0.0854 -0.9929 -0.0826
vn 0.5274 0.1950 0.8269
vn 0.5438 0.0808 0.8353
vn 0.5154 0.0844 0.8528
vn 0.5054 -0.1432 0.8509
vn 0.5101 -0.0482 0.8588
vn 0.5336 -0.0602 0.8436
vn 0.0301 -0.9941 -0.1043
vn 0.0395 -0.9947 -0.0953
vn 0.0451 -0.9933 -0.1067
vn -0.2582 0.8321 0.4909
vn -0.3635 0.6188 0.6964
vn -0.4627 0.6076 0.6456
vn 0.0030 0.9998 -0.0215
vn 0.0088 0.9998 -0.0175
vn 0.0010 1.0000 -0.0071
vt -0.020375 -3.663002
vt 0.500000 -3.663002
vt 0.500000 -3.142626
vt -0.020375 -3.142626
vt -0.540750 -3.663002
vt -0.540750 -3.142626
vt -0.020375 -2.622251
vt -0.540750 -2.622251
vt 1.020375 -3.663002
vt 1.540750 -3.663002
vt 1.540750 -3.142626
vt 1.020375 -3.142626
vt 1.020375 -2.622251
vt 0.500000 -2.622251
vt -0.020375 3.622251
vt 0.500000 3.622251
vt 0.500000 4.142626
vt -0.020375 4.142626
vt -0.540750 3.622251
vt -0.540750 4.142626
vt -0.020375 4.663002
vt -0.540750 4.663002
vt -0.020375 2.581501
vt 0.500000 2.581501
vt 0.500000 3.101876
vt -0.020375 3.101876
vt -0.540750 2.581501
vt -0.540750 3.101876
vt 1.020375 2.581501
vt 1.540750 2.581501
vt 1.540750 3.101876
vt 1.020375 3.101876
vt 1.020375 3.622251
vt 2.061126 1.540750
vt 2.581501 1.540750
vt 2.581501 2.061126
vt 2.061126 2.061126
vt 1.540750 1.540750
vt 1.540750 2.061126
vt 2.061126 2.581501
vt 2.061126 0.500000
vt 2.581501 0.500000
vt 2.581501 1.020375
vt 2.061126 1.020375
vt 1.540750 0.500000
vt 1.540750 1.020375
vt 3.101876 0.500000
vt 3.622251 0.500000
vt 3.622251 1.020375
vt 3.101876 1.020375
vt 3.101876 1.540750
vt 3.101876 2.061126
vt 3.622251 2.061126
vt 3.622251 2.581501
vt 3.101876 2.581501
vt 1.020375 4.142626
vt 1.540750 4.142626
vt 1.540750 4.663002
vt 1.020375 4.663002
vt 1.020375 -2.101876
vt 1.540750 -2.101876
vt 1.540750 -1.581501
vt 1.020375 -1.581501
vt -1.061126 2.061126
vt -0.540750 2.061126
vt -1.061126 2.581501
vt 1.020375 2.061126
vt 1.020375 -0.020375
vt 1.540750 -0.020375
vt 1.020375 0.500000
vt -0.020375 -0.020375
vt 0.500000 -0.020375
vt 0.500000 0.500000
vt -0.020375 0.500000
vt -0.020375 -1.061126
vt 0.500000 -1.061126
vt 0.500000 -0.540750
vt -0.020375 -0.540750
vt 1.020375 -1.061126
vt 1.540750 -1.061126
vt 1.540750 -0.540750
vt 1.020375 -0.540750
vt -0.020375 2.061126
vt 0.500000 2.061126
vt -0.020375 1.020375
vt 0.500000 1.020375
vt 0.500000 1.540750
vt -0.020375 1.540750
vt 1.020375 1.020375
vt 1.020375 1.540750
vt -2.101876 2.061126
vt -1.581501 2.061126
vt -1.581501 2.581501
vt -2.101876 2.581501
vt -2.101876 1.020375
vt -1.581501 1.020375
vt -1.581501 1.540750
vt -2.101876 1.540750
vt -1.061126 1.020375
vt -0.540750 1.020375
vt -0.540750 1.540750
vt -1.061126 1.540750
vt -0.020375 -2.101876
vt 0.500000 -2.101876
vt 0.500000 -1.581501
vt -0.020375 -1.581501
vt 1.540750 -2.622251
vt 0.500000 4.663002
vt 1.540750 3.622251
vt 2.581501 2.581501
vt 3.622251 1.540750
vt -0.540750 -2.101876
vt -0.540750 -1.581501
vt -1.581501 0.500000
vt -1.061126 0.500000
vt -0.540750 0.500000
vt -2.622251 1.020375
vt -2.622251 1.540750
vt -2.622251 0.500000
vt -2.101876 0.500000
vt -2.622251 2.061126
vt -2.622251 2.581501
vt -0.540750 -1.061126
vt -0.540750 -0.540750
vt -0.540750 -0.020375
s 0
usemtl grass
f 23/9/4 33/10/4 5/11/4 81/12/4
f 10/29/13 29/30/13 8/31/13 78/32/13
f 73/34/16 52/35/16 71/36/16 77/37/16
f 42/38/17 73/34/17 77/37/17 19/39/17
f 19/39/18 77/37/18 8/40/18 29/30/18
f 16/41/19 45/42/19 72/43/19 76/44/19
f 27/45/19 16/41/19 76/44/19 7/46/19
f 7/46/19 76/44/19 73/34/19 42/38/19
f 4/47/19 31/48/19 17/49/19 75/50/19
f 45/42/19 4/47/19 75/50/19 72/43/19
f 72/43/19 75/50/19 74/51/19 52/35/19
f 98/52/20 5/53/20 33/54/20 20/55/20
f 97/56/21 20/57/21 33/58/21 23/59/21
f 96/60/22 17/61/22 31/62/22 9/63/22
f 94/67/24 19/39/24 29/30/24 10/29/24
f 93/68/25 16/69/25 27/45/25 12/70/25
f 90/79/26 4/80/26 45/81/26 54/82/26
f 87/89/28 7/46/28 42/38/28 58/90/28
f 81/12/32 5/11/32 44/107/32 66/13/32
f 78/32/35 8/31/35 41/109/35 70/33/35
f 77/37/36 71/36/36 41/110/36 8/40/36
f 76/44/19 72/43/19 52/35/19 73/34/19
f 75/50/19 17/49/19 44/111/19 74/51/19
f 12/70/28 27/45/28 7/46/28 87/89/28
f 9/63/26 31/62/26 4/80/26 90/79/26
f 54/82/25 45/81/25 16/69/25 93/68/25
f 58/90/45 42/38/45 19/39/45 94/67/45
f 66/13/22 44/107/22 17/61/22 96/60/22
f 70/33/51 41/109/51 20/57/51 97/56/51
f 71/36/52 98/52/52 20/55/52 41/110/52
f 52/35/53 74/51/53 98/52/53 71/36/53
f 74/51/54 44/111/54 5/53/54 98/52/54
f 219/9/4 229/10/4 201/11/4 277/12/4
f 206/29/13 225/30/13 204/31/13 274/32/13
f 269/34/16 248/35/16 267/36/16 273/37/16
f 238/38/17 269/34/17 273/37/17 215/39/17
f 215/39/18 273/37/18 204/40/18 225/30/18
f 212/41/19 241/42/19 268/43/19 272/44/19
f 223/45/19 212/41/19 272/44/19 203/46/19
f 203/46/19 272/44/19 269/34/19 238/38/19
f 200/47/19 227/48/19 213/49/19 271/50/19
f 241/42/19 200/47/19 271/50/19 268/43/19
f 268/43/19 271/50/19 270/51/19 248/35/19
f 294/52/20 201/53/20 229/54/20 216/55/20
f 293/56/21 216/57/21 229/58/21 219/59/21
f 292/60/22 213/61/22 227/62/22 205/63/22
f 290/67/24 215/39/24 225/30/24 206/29/24
f 289/68/25 212/69/25 223/45/25 208/70/25
f 286/79/26 200/80/26 241/81/26 250/82/26
f 283/89/28 203/46/28 238/38/28 254/90/28
f 277/12/32 201/11/32 240/107/32 262/13/32
f 274/32/35 204/31/35 237/109/35 266/33/35
f 273/37/36 267/36/36 237/110/36 204/40/36
f 272/44/19 268/43/19 248/35/19 269/34/19
f 271/50/19 213/49/19 240/111/19 270/51/19
f 208/70/28 223/45/28 203/46/28 283/89/28
f 205/63/26 227/62/26 200/80/26 286/79/26
f 250/82/25 241/81/25 212/69/25 289/68/25
f 254/90/45 238/38/45 215/39/45 290/67/45
f 262/13/22 240/107/22 213/61/22 292/60/22
f 266/33/51 237/109/51 216/57/51 293/56/51
f 267/36/52 294/52/52 216/55/52 237/110/52
f 248/35/53 270/51/53 294/52/53 267/36/53
f 270/51/54 240/111/54 201/53/54 294/52/54
f 415/9/4 425/10/4 397/11/4 473/12/4
f 402/29/13 421/30/13 400/31/13 470/32/13
f 465/34/16 444/35/16 463/36/16 469/37/16
f 434/38/17 465/34/17 469/37/17 411/39/17
f 411/39/18 469/37/18 400/40/18 421/30/18
f 408/41/19 437/42/19 464/43/19 468/44/19
f 419/45/19 408/41/19 468/44/19 399/46/19
f 399/46/19 468/44/19 465/34/19 434/38/19
f 396/47/19 423/48/19 409/49/19 467/50/19
f 437/42/19 396/47/19 467/50/19 464/43/19
f 464/43/19 467/50/19 466/51/19 444/35/19
f 490/52/20 397/53/20 425/54/20 412/55/20
f 489/56/21 412/57/21 425/58/21 415/59/21
f 488/60/22 409/61/22 423/62/22 401/63/22
f 486/67/24 411/39/24 421/30/24 402/29/24
f 485/68/25 408/69/25 419/45/25 404/70/25
f 482/79/26 396/80/26 437/81/26 446/82/26
f 479/89/28 399/46/28 434/38/28 450/90/28
f 473/12/32 397/11/32 436/107/32 458/13/32
f 470/32/35 400/31/35 433/109/35 462/33/35
f 469/37/36 463/36/36 433/110/36 400/40/36
f 468/44/19 464/43/19 444/35/19 465/34/19
f 467/50/19 409/49/19 436/111/19 466/51/19
f 404/70/28 419/45/28 399/46/28 479/89/28
f 401/63/26 423/62/26 396/80/26 482/79/26
f 446/82/25 437/81/25 408/69/25 485/68/25
f 450/90/45 434/38/45 411/39/45 486/67/45
f 458/13/22 436/107/22 409/61/22 488/60/22
f 462/33/51 433/109/51 412/57/51 489/56/51
f 463/36/52 490/52/52 412/55/52 433/110/52
f 444/35/53 466/51/53 490/52/53 463/36/53
f 466/51/54 436/111/54 397/53/54 490/52/54
usemtl dirt
f 11/1/1 38/2/1 64/3/1 82/4/1
f 34/5/2 11/1/2 82/4/2 26/6/2
f 26/6/3 82/4/3 65/7/3 35/8/3
f 38/2/5 23/9/5 81/12/5 64/3/5
f 64/3/6 81/12/6 66/13/6 50/14/6
f 69/15/7 51/16/7 67/17/7 80/18/7
f 43/19/8 69/15/8 80/18/8 6/20/8
f 6/20/9 80/18/9 11/21/9 34/22/9
f 22/23/10 39/24/10 68/25/10 79/26/10
f 30/27/11 22/23/11 79/26/11 18/28/11
f 18/28/12 79/26/12 69/15/12 43/19/12
f 39/24/14 10/29/14 78/32/14 68/25/14
f 68/25/15 78/32/15 70/33/15 51/16/15
f 95/64/23 3/65/23 30/27/23 18/66/23
f 92/71/25 2/72/25 37/73/25 24/74/25
f 91/75/26 1/76/26 47/77/26 53/78/26
f 89/83/27 55/84/27 39/24/27 22/23/27
f 88/85/28 56/86/28 48/87/28 57/88/28
f 86/91/29 59/92/29 43/93/29 6/94/29
f 85/95/30 60/96/30 49/97/30 61/98/30
f 84/99/30 15/100/30 46/101/30 62/102/30
f 83/103/22 63/104/22 40/105/22 21/106/22
f 82/4/31 64/3/31 50/14/31 65/7/31
f 80/18/33 67/17/33 38/108/33 11/21/33
f 79/26/34 68/25/34 51/16/34 69/15/34
f 14/112/22 83/103/22 21/106/22 32/113/22
f 35/8/22 65/7/22 83/103/22 14/112/22
f 65/7/22 50/14/22 63/104/22 83/103/22
f 60/96/30 84/99/30 62/102/30 49/97/30
f 36/114/30 13/115/30 84/99/30 60/96/30
f 13/115/30 28/116/30 15/100/30 84/99/30
f 14/117/30 85/95/30 61/98/30 35/118/30
f 32/119/30 25/120/30 85/95/30 14/117/30
f 25/120/30 36/114/30 60/96/30 85/95/30
f 26/121/37 86/91/37 6/94/37 34/122/37
f 35/118/38 61/98/38 86/91/38 26/121/38
f 61/98/39 49/97/39 59/92/39 86/91/39
f 56/86/28 87/89/28 58/90/28 48/87/28
f 37/73/28 12/70/28 87/89/28 56/86/28
f 15/100/28 88/85/28 57/88/28 46/101/28
f 28/116/28 24/74/28 88/85/28 15/100/28
f 24/74/28 37/73/28 56/86/28 88/85/28
f 3/65/40 89/83/40 22/23/40 30/27/40
f 46/101/41 57/88/41 89/83/41 3/65/41
f 57/88/42 48/87/42 55/84/42 89/83/42
f 1/76/26 90/79/26 54/82/26 47/77/26
f 40/105/26 9/63/26 90/79/26 1/76/26
f 25/123/26 91/75/26 53/78/26 36/124/26
f 32/113/26 21/106/26 91/75/26 25/123/26
f 21/106/26 40/105/26 1/76/26 91/75/26
f 13/125/25 92/71/25 24/74/25 28/116/25
f 36/124/25 53/78/25 92/71/25 13/125/25
f 53/78/25 47/77/25 2/72/25 92/71/25
f 2/72/25 93/68/25 12/70/25 37/73/25
f 47/77/25 54/82/25 93/68/25 2/72/25
f 55/84/43 94/67/43 10/29/43 39/24/43
f 48/87/44 58/90/44 94/67/44 55/84/44
f 59/92/46 95/64/46 18/66/46 43/93/46
f 49/97/47 62/102/47 95/64/47 59/92/47
f 62/102/48 46/101/48 3/65/48 95/64/48
f 63/104/22 96/60/22 9/63/22 40/105/22
f 50/14/22 66/13/22 96/60/22 63/104/22
f 67/17/49 97/56/49 23/59/49 38/108/49
f 51/16/50 70/33/50 97/56/50 67/17/50
f 207/1/1 234/2/1 260/3/1 278/4/1
f 230/5/2 207/1/2 278/4/2 222/6/2
f 222/6/3 278/4/3 261/7/3 231/8/3
f 234/2/5 219/9/5 277/12/5 260/3/5
f 260/3/6 277/12/6 262/13/6 246/14/6
f 265/15/7 247/16/7 263/17/7 276/18/7
f 239/19/8 265/15/8 276/18/8 202/20/8
f 202/20/9 276/18/9 207/21/9 230/22/9
f 218/23/10 235/24/10 264/25/10 275/26/10
f 226/27/11 218/23/11 275/26/11 214/28/11
f 214/28/12 275/26/12 265/15/12 239/19/12
f 235/24/14 206/29/14 274/32/14 264/25/14
f 264/25/15 274/32/15 266/33/15 247/16/15
f 291/64/23 199/65/23 226/27/23 214/66/23
f 288/71/25 198/72/25 233/73/25 220/74/25
f 287/75/26 197/76/26 243/77/26 249/78/26
f 285/83/27 251/84/27 235/24/27 218/23/27
f 284/85/28 252/86/28 244/87/28 253/88/28
f 282/91/29 255/92/29 239/93/29 202/94/29
f 281/95/30 256/96/30 245/97/30 257/98/30
f 280/99/30 211/100/30 242/101/30 258/102/30
f 279/103/22 259/104/22 236/105/22 217/106/22
f 278/4/31 260/3/31 246/14/31 261/7/31
f 276/18/33 263/17/33 234/108/33 207/21/33
f 275/26/34 264/25/34 247/16/34 265/15/34
f 210/112/22 279/103/22 217/106/22 228/113/22
f 231/8/22 261/7/22 279/103/22 210/112/22
f 261/7/22 246/14/22 259/104/22 279/103/22
f 256/96/30 280/99/30 258/102/30 245/97/30
f 232/114/30 209/115/30 280/99/30 256/96/30
f 209/115/30 224/116/30 211/100/30 280/99/30
f 210/117/30 281/95/30 257/98/30 231/118/30
f 228/119/30 221/120/30 281/95/30 210/117/30
f 221/120/30 232/114/30 256/96/30 281/95/30
f 222/121/37 282/91/37 202/94/37 230/122/37
f 231/118/38 257/98/38 282/91/38 222/121/38
f 257/98/39 245/97/39 255/92/39 282/91/39
f 252/86/28 283/89/28 254/90/28 244/87/28
f 233/73/28 208/70/28 283/89/28 252/86/28
f 211/100/28 284/85/28 253/88/28 242/101/28
f 224/116/28 220/74/28 284/85/28 211/100/28
f 220/74/28 233/73/28 252/86/28 284/85/28
f 199/65/40 285/83/40 218/23/40 226/27/40
f 242/101/41 253/88/41 285/83/41 199/65/41
f 253/88/42 244/87/42 251/84/42 285/83/42
f 197/76/26 286/79/26 250/82/26 243/77/26
f 236/105/26 205/63/26 286/79/26 197/76/26
f 221/123/26 287/75/26 249/78/26 232/124/26
f 228/113/26 217/106/26 287/75/26 221/123/26
f 217/106/26 236/105/26 197/76/26 287/75/26
f 209/125/25 288/71/25 220/74/25 224/116/25
f 232/124/25 249/78/25 288/71/25 209/125/25
f 249/78/25 243/77/25 198/72/25 288/71/25
f 198/72/25 289/68/25 208/70/25 233/73/25
f 243/77/25 250/82/25 289/68/25 198/72/25
f 251/84/43 290/67/43 206/29/43 235/24/43
f 244/87/44 254/90/44 290/67/44 251/84/44
f 255/92/46 291/64/46 214/66/46 239/93/46
f 245/97/47 258/102/47 291/64/47 255/92/47
f 258/102/48 242/101/48 199/65/48 291/64/48
f 259/104/22 292/60/22 205/63/22 236/105/22
f 246/14/22 262/13/22 292/60/22 259/104/22
f 263/17/49 293/56/49 219/59/49 234/108/49
f 247/16/50 266/33/50 293/56/50 263/17/50
f 403/1/1 430/2/1 456/3/1 474/4/1
f 426/5/2 403/1/2 474/4/2 418/6/2
f 418/6/3 474/4/3 457/7/3 427/8/3
f 430/2/5 415/9/5 473/12/5 456/3/5
f 456/3/6 473/12/6 458/13/6 442/14/6
f 461/15/7 443/16/7 459/17/7 472/18/7
f 435/19/8 461/15/8 472/18/8 398/20/8
f 398/20/9 472/18/9 403/21/9 426/22/9
f 414/23/10 431/24/10 460/25/10 471/26/10
f 422/27/11 414/23/11 471/26/11 410/28/11
f 410/28/12 471/26/12 461/15/12 435/19/12
f 431/24/14 402/29/14 470/32/14 460/25/14
f 460/25/15 470/32/15 462/33/15 443/16/15
f 487/64/23 395/65/23 422/27/23 410/66/23
f 484/71/25 394/72/25 429/73/25 416/74/25
f 483/75/26 393/76/26 439/77/26 445/78/26
f 481/83/27 447/84/27 431/24/27 414/23/27
f 480/85/28 448/86/28 440/87/28 449/88/28
f 478/91/29 451/92/29 435/93/29 398/94/29
f 477/95/30 452/96/30 441/97/30 453/98/30
f 476/99/30 407/100/30 438/101/30 454/102/30
f 475/103/22 455/104/22 432/105/22 413/106/22
f 474/4/31 456/3/31 442/14/31 457/7/31
f 472/18/33 459/17/33 430/108/33 403/21/33
f 471/26/34 460/25/34 443/16/34 461/15/34
f 406/112/22 475/103/22 413/106/22 424/113/22
f 427/8/22 457/7/22 475/103/22 406/112/22
f 457/7/22 442/14/22 455/104/22 475/103/22
f 452/96/30 476/99/30 454/102/30 441/97/30
f 428/114/30 405/115/30 476/99/30 452/96/30
f 405/115/30 420/116/30 407/100/30 476/99/30
f 406/117/30 477/95/30 453/98/30 427/118/30
f 424/119/30 417/120/30 477/95/30 406/117/30
f 417/120/30 428/114/30 452/96/30 477/95/30
f 418/121/37 478/91/37 398/94/37 426/122/37
f 427/118/38 453/98/38 478/91/38 418/121/38
f 453/98/39 441/97/39 451/92/39 478/91/39
f 448/86/28 479/89/28 450/90/28 440/87/28
f 429/73/28 404/70/28 479/89/28 448/86/28
f 407/100/28 480/85/28 449/88/28 438/101/28
f 420/116/28 416/74/28 480/85/28 407/100/28
f 416/74/28 429/73/28 448/86/28 480/85/28
f 395/65/40 481/83/40 414/23/40 422/27/40
f 438/101/41 449/88/41 481/83/41 395/65/41
f 449/88/42 440/87/42 447/84/42 481/83/42
f 393/76/26 482/79/26 446/82/26 439/77/26
f 432/105/26 401/63/26 482/79/26 393/76/26
f 417/123/26 483/75/26 445/78/26 428/124/26
f 424/113/26 413/106/26 483/75/26 417/123/26
f 413/106/26 432/105/26 393/76/26 483/75/26
f 405/125/25 484/71/25 416/74/25 420/116/25
f 428/124/25 445/78/25 484/71/25 405/125/25
f 445/78/25 439/77/25 394/72/25 484/71/25
f 394/72/25 485/68/25 404/70/25 429/73/25
f 439/77/25 446/82/25 485/68/25 394/72/25
f 447/84/43 486/67/43 402/29/43 431/24/43
f 440/87/44 450/90/44 486/67/44 447/84/44
f 451/92/46 487/64/46 410/66/46 435/93/46
f 441/97/47 454/102/47 487/64/47 451/92/47
f 454/102/48 438/101/48 395/65/48 487/64/48
f 455/104/22 488/60/22 401/63/22 432/105/22
f 442/14/22 458/13/22 488/60/22 455/104/22
f 459/17/49 489/56/49 415/59/49 430/108/49
f 443/16/50 462/33/50 489/56/50 459/17/50
l 1 99
l 2 100
l 3 101
l 4 102
l 5 103
l 6 104
l 7 105
l 8 106
l 9 107
l 10 108
l 11 109
l 12 110
l 13 111
l 14 112
l 15 113
l 16 114
l 17 115
l 18 116
l 19 117
l 20 118
l 21 119
l 22 120
l 23 121
l 24 122
l 25 123
l 26 124
l 27 125
l 28 126
l 29 127
l 30 128
l 31 129
l 32 130
l 33 131
l 34 132
l 35 133
l 36 134
l 37 135
l 38 136
l 39 137
l 40 138
l 41 139
l 42 140
l 43 141
l 44 142
l 45 143
l 46 144
l 47 145
l 48 146
l 49 147
l 50 148
l 51 149
l 52 150
l 53 151
l 54 152
l 55 153
l 56 154
l 57 155
l 58 156
l 59 157
l 60 158
l 61 159
l 62 160
l 63 161
l 64 162
l 65 163
l 66 164
l 67 165
l 68 166
l 69 167
l 70 168
l 71 169
l 72 170
l 73 171
l 74 172
l 75 173
l 76 174
l 77 175
l 78 176
l 79 177
l 80 178
l 81 179
l 82 180
l 83 181
l 84 182
l 85 183
l 86 184
l 87 185
l 88 186
l 89 187
l 90 188
l 91 189
l 92 190
l 93 191
l 94 192
l 95 193
l 96 194
l 97 195
l 98 196
l 197 295
l 198 296
l 199 297
l 200 298
l 201 299
l 202 300
l 203 301
l 204 302
l 205 303
l 206 304
l 207 305
l 208 306
l 209 307
l 210 308
l 211 309
l 212 310
l 213 311
l 214 312
l 215 313
l 216 314
l 217 315
l 218 316
l 219 317
l 220 318
l 221 319
l 222 320
l 223 321
l 224 322
l 225 323
l 226 324
l 227 325
l 228 326
l 229 327
l 230 328
l 231 329
l 232 330
l 233 331
l 234 332
l 235 333
l 236 334
l 237 335
l 238 336
l 239 337
l 240 338
l 241 339
l 242 340
l 243 341
l 244 342
l 245 343
l 246 344
l 247 345
l 248 346
l 249 347
l 250 348
l 251 349
l 252 350
l 253 351
l 254 352
l 255 353
l 256 354
l 257 355
l 258 356
l 259 357
l 260 358
l 261 359
l 262 360
l 263 361
l 264 362
l 265 363
l 266 364
l 267 365
l 268 366
l 269 367
l 270 368
l 271 369
l 272 370
l 273 371
l 274 372
l 275 373
l 276 374
l 277 375
l 278 376
l 279 377
l 280 378
l 281 379
l 282 380
l 283 381
l 284 382
l 285 383
l 286 384
l 287 385
l 288 386
l 289 387
l 290 388
l 291 389
l 292 390
l 293 391
l 294 392
l 393 491
l 394 492
l 395 493
l 396 494
l 397 495
l 398 496
l 399 497
l 400 498
l 401 499
l 402 500
l 403 501
l 404 502
l 405 503
l 406 504
l 407 505
l 408 506
l 409 507
l 410 508
l 411 509
l 412 510
l 413 511
l 414 512
l 415 513
l 416 514
l 417 515
l 418 516
l 419 517
l 420 518
l 421 519
l 422 520
l 423 521
l 424 522
l 425 523
l 426 524
l 427 525
l 428 526
l 429 527
l 430 528
l 431 529
l 432 530
l 433 531
l 434 532
l 435 533
l 436 534
l 437 535
l 438 536
l 439 537
l 440 538
l 441 539
l 442 540
l 443 541
l 444 542
l 445 543
l 446 544
l 447 545
l 448 546
l 449 547
l 450 548
l 451 549
l 452 550
l 453 551
l 454 552
l 455 553
l 456 554
l 457 555
l 458 556
l 459 557
l 460 558
l 461 559
l 462 560
l 463 561
l 464 562
l 465 563
l 466 564
l 467 565
l 468 566
l 469 567
l 470 568
l 471 569
l 472 570
l 473 571
l 474 572
l 475 573
l 476 574
l 477 575
l 478 576
l 479 577
l 480 578
l 481 579
l 482 580
l 483 581
l 484 582
l 485 583
l 486 584
l 487 585
l 488 586
l 489 587
l 490 588
o Cube.001
v -4.852838 0.000000 29.516571
v -18.319630 0.000000 26.386736
v -17.693466 -3.745574 9.232855
v -4.852838 2.948087 29.516571
v 10.627444 2.948087 21.427612
v 4.792950 -4.856692 8.558495
v -24.262959 2.948087 19.619484
v -9.734111 3.067362 9.274425
v 1.365108 1.474043 30.633841
v -14.729604 1.474043 6.941427
v 10.506406 -2.805410 10.350276
v -25.568478 1.474043 24.374161
v -18.319630 -2.948087 26.386736
v 5.320579 -2.948087 28.163734
v -24.262959 -2.948087 19.619484
v -18.319630 2.948087 26.386736
v 5.320578 2.948087 28.163738
v -6.615771 -4.322813 5.535233
v -19.869743 2.948087 11.671999
v 4.646338 3.067362 13.615625
v 1.365108 -1.474043 30.633841
v -12.553330 -2.271531 4.502283
v 11.301857 1.474043 14.107358
v -25.568478 -1.474043 24.374161
v -4.852838 -2.948087 29.516571
v 9.831996 -4.279453 17.670532
v -25.568478 2.948087 24.374161
v -25.568478 -2.948087 24.374161
v -16.782047 2.948087 8.479191
v -12.429499 -4.543061 3.600905
v 1.365108 2.948087 30.633841
v 1.365108 -2.948087 30.633841
v 11.978845 2.948087 17.161592
v 10.387943 -5.610820 9.647429
v 9.276048 -2.948087 25.693634
v -11.070783 -2.948087 28.399305
v -25.568478 0.000000 24.374161
v 10.624867 0.000000 11.053122
v -12.677162 0.000000 5.403659
v 1.365108 0.000000 30.633841
v -2.686173 3.186637 10.069659
v -22.957439 2.948087 14.864805
v -0.802043 -4.102564 7.469559
v 9.276048 2.948087 25.693634
v -11.070783 2.948087 28.399305
v -22.957439 -2.948087 14.864805
v -11.070783 0.000000 28.399305
v -22.957439 0.000000 14.864805
v -6.440903 -2.948087 18.608948
v 9.276048 0.000000 25.693634
v -1.811023 0.000000 8.818588
v -6.440903 2.948087 18.608948
v -11.070783 -1.474043 28.399305
v -11.070783 1.474043 28.399305
v -17.817299 0.000000 10.134232
v -24.262959 0.000000 19.619484
v -22.957439 -1.474043 14.864805
v -22.957439 1.474043 14.864805
v -3.621473 -3.525325 13.039252
v -8.755843 -2.948087 23.504126
v 1.417573 -2.948087 22.151293
v -14.699171 -2.948087 16.736877
v 5.320578 0.000000 28.163738
v 9.950459 0.000000 18.373377
v 9.276048 -1.474043 25.693634
v 9.276048 1.474043 25.693634
v 4.406922 0.000000 9.935856
v -7.244093 0.000000 7.111125
v -1.306533 -2.051282 8.144073
v -2.248599 1.593318 9.444125
v -4.563538 3.067362 14.339303
v -8.755843 2.948087 23.504126
v -14.699172 2.948087 16.736876
v 1.417573 2.948087 22.151293
v -1.717632 2.948087 25.833929
v -16.509399 2.948087 21.561806
v -12.216640 3.007724 13.005651
v -8.489101 1.533681 8.192774
v -6.929933 -2.161407 6.323178
v 4.599936 -2.428346 9.247175
v 10.288955 1.474043 19.900496
v 9.891228 -2.139727 18.021955
v 5.320578 -1.474043 28.163738
v -16.509399 -2.948087 21.561806
v -1.717632 -2.948087 25.833929
v 3.105261 -3.902390 15.354894
v -24.262959 1.474043 19.619484
v -24.262959 -1.474043 19.619484
v -17.755386 -1.872787 9.683544
v -4.852838 1.474043 29.516571
v -4.852838 -1.474043 29.516571
v -18.319630 -1.474043 26.386736
v -18.319630 1.474043 26.386736
v -18.843521 1.474043 10.903114
v -10.657472 -3.635450 11.136054
v 5.320578 1.474043 28.163738
v 4.526630 1.533681 11.775742
v 3.031956 3.007724 17.883459
v -4.852838 0.000000 29.516571
v -18.319630 0.000000 26.386736
v -17.693466 -3.745574 9.232855
v -4.852838 2.948087 29.516571
v 10.627444 2.948087 21.427612
v 4.792950 -4.856692 8.558495
v -24.262959 2.948087 19.619484
v -9.734111 3.067362 9.274425
v 1.365108 1.474043 30.633841
v -14.729604 1.474043 6.941427
v 10.506406 -2.805410 10.350276
v -25.568478 1.474043 24.374161
v -18.319630 -2.948087 26.386736
v 5.320579 -2.948087 28.163734
v -24.262959 -2.948087 19.619484
v -18.319630 2.948087 26.386736
v 5.320578 2.948087 28.163738
v -6.615771 -4.322813 5.535233
v -19.869743 2.948087 11.671999
v 4.646338 3.067362 13.615625
v 1.365108 -1.474043 30.633841
v -12.553330 -2.271531 4.502283
v 11.301857 1.474043 14.107358
v -25.568478 -1.474043 24.374161
v -4.852838 -2.948087 29.516571
v 9.831996 -4.279453 17.670532
v -25.568478 2.948087 24.374161
v -25.568478 -2.948087 24.374161
v -16.782047 2.948087 8.479191
v -12.429499 -4.543061 3.600905
v 1.365108 2.948087 30.633841
v 1.365108 -2.948087 30.633841
v 11.978845 2.948087 17.161592
v 10.387943 -5.610820 9.647429
v 9.276048 -2.948087 25.693634
v -11.070783 -2.948087 28.399305
v -25.568478 0.000000 24.374161
v 10.624867 0.000000 11.053122
v -12.677162 0.000000 5.403659
v 1.365108 0.000000 30.633841
v -2.686173 3.186637 10.069659
v -22.957439 2.948087 14.864805
v -0.802043 -4.102564 7.469559
v 9.276048 2.948087 25.693634
v -11.070783 2.948087 28.399305
v -22.957439 -2.948087 14.864805
v -11.070783 0.000000 28.399305
v -22.957439 0.000000 14.864805
v -6.440903 -2.948087 18.608948
v 9.276048 0.000000 25.693634
v -1.811023 0.000000 8.818588
v -6.440903 2.948087 18.608948
v -11.070783 -1.474043 28.399305
v -11.070783 1.474043 28.399305
v -17.817299 0.000000 10.134232
v -24.262959 0.000000 19.619484
v -22.957439 -1.474043 14.864805
v -22.957439 1.474043 14.864805
v -3.621473 -3.525325 13.039252
v -8.755843 -2.948087 23.504126
v 1.417573 -2.948087 22.151293
v -14.699171 -2.948087 16.736877
v 5.320578 0.000000 28.163738
v 9.950459 0.000000 18.373377
v 9.276048 -1.474043 25.693634
v 9.276048 1.474043 25.693634
v 4.406922 0.000000 9.935856
v -7.244093 0.000000 7.111125
v -1.306533 -2.051282 8.144073
v -2.248599 1.593318 9.444125
v -4.563538 3.067362 14.339303
v -8.755843 2.948087 23.504126
v -14.699172 2.948087 16.736876
v 1.417573 2.948087 22.151293
v -1.717632 2.948087 25.833929
v -16.509399 2.948087 21.561806
v -12.216640 3.007724 13.005651
v -8.489101 1.533681 8.192774
v -6.929933 -2.161407 6.323178
v 4.599936 -2.428346 9.247175
v 10.288955 1.474043 19.900496
v 9.891228 -2.139727 18.021955
v 5.320578 -1.474043 28.163738
v -16.509399 -2.948087 21.561806
v -1.717632 -2.948087 25.833929
v 3.105261 -3.902390 15.354894
v -24.262959 1.474043 19.619484
v -24.262959 -1.474043 19.619484
v -17.755386 -1.872787 9.683544
v -4.852838 1.474043 29.516571
v -4.852838 -1.474043 29.516571
v -18.319630 -1.474043 26.386736
v -18.319630 1.474043 26.386736
v -18.843521 1.474043 10.903114
v -10.657472 -3.635450 11.136054
v 5.320578 1.474043 28.163738
v 4.526630 1.533681 11.775742
v 3.031956 3.007724 17.883459
v 13.624463 -0.095062 22.584787
v 7.178080 -0.095062 23.090324
v 5.035715 -1.846837 15.353381
v 13.624463 1.283735 22.584787
v 19.384899 1.283735 16.792789
v 14.966731 -2.366498 11.878361
v 3.572767 1.283735 20.911949
v 8.590492 1.339519 14.248318
v 16.554634 0.594336 22.205187
v 6.033763 0.594336 13.913280
v 17.767178 -1.407130 11.870729
v 3.661864 0.594336 23.216257
v 7.178080 -1.473858 23.090324
v 17.969601 -1.473858 20.545435
v 3.572767 -1.473858 20.911949
v 7.178080 1.283735 23.090324
v 17.969597 1.283735 20.545437
v 9.453042 -2.116807 12.140886
v 4.409685 1.283735 16.748159
v 15.615260 1.339519 14.153925
v 16.554634 -0.784460 22.205187
v 6.659791 -1.157439 12.518501
v 18.652229 0.594336 13.433639
v 3.661864 -0.784460 23.216257
v 13.624463 -1.473858 22.584787
v 18.499851 -2.096528 15.229878
v 3.661864 1.283735 23.216257
v 3.661864 -1.473858 23.216257
v 5.335704 1.283735 14.888676
v 6.587759 -2.219815 12.099115
v 16.554634 1.283735 22.205187
v 16.554634 -1.473858 22.205187
v 19.385242 1.283735 14.699889
v 17.615143 -2.719198 11.574066
v 19.384563 -1.473858 18.885691
v 10.694295 -1.473858 22.964388
v 3.661864 -0.095062 23.216257
v 17.919220 -0.095062 12.167389
v 6.731822 -0.095062 12.937889
v 16.554634 -0.095062 22.205187
v 11.845275 1.395303 13.607962
v 3.483666 1.283735 18.607645
v 12.318322 -2.013798 12.182657
v 19.384563 1.283735 18.885691
v 10.694295 1.283735 22.964388
v 3.483666 -1.473858 18.607645
v 10.694295 -0.095062 22.964388
v 3.483666 -0.095062 18.607645
v 11.376586 -1.473858 17.945490
v 19.384563 -0.095062 18.885691
v 12.058877 -0.095062 12.926594
v 11.376586 1.283735 17.945490
v 10.694295 -0.784460 22.964388
v 10.694295 0.594336 22.964388
v 5.107743 -0.095062 15.772766
v 3.572767 -0.095062 20.911949
v 3.483666 -0.784460 18.607645
v 3.483666 0.594336 18.607645
v 11.847454 -1.743828 15.064072
v 11.035438 -1.473858 20.454939
v 15.380572 -1.473858 18.415590
v 7.430126 -1.473858 18.276567
v 17.969597 -0.095062 20.545437
v 18.651886 -0.095062 15.526539
v 19.384563 -0.784460 18.885691
v 19.384563 0.594336 18.885691
v 14.989045 -0.095062 12.546991
v 9.395349 -0.095062 12.932240
v 12.188598 -1.054430 12.554625
v 11.952077 0.650120 13.267277
v 11.610931 1.339519 15.776728
v 11.035438 1.283735 20.454939
v 7.430123 1.283735 18.276567
v 15.380572 1.283735 18.415590
v 14.502519 1.283735 20.500189
v 7.304101 1.283735 20.683443
v 8.010309 1.311627 16.262444
v 8.992919 0.622228 13.590279
v 9.424196 -1.105934 12.536564
v 14.977888 -1.230780 12.212675
v 19.018394 0.594336 16.159664
v 18.575871 -1.095795 15.378210
v 17.969597 -0.784460 20.545437
v 7.304101 -1.473858 20.683443
v 14.502519 -1.473858 20.500189
v 15.173653 -1.920178 15.146976
v 3.572767 0.594336 20.911949
v 3.572767 -0.784460 20.911949
v 5.071730 -0.970949 15.563073
v 13.624463 0.594336 22.584787
v 13.624463 -0.784460 22.584787
v 7.178080 -0.784460 23.090324
v 7.178080 0.594336 23.090324
v 4.758716 0.594336 16.260464
v 8.441584 -1.795333 15.208725
v 17.969597 0.594336 20.545437
v 15.302153 0.622228 13.350458
v 15.497917 1.311627 16.284758
v 13.624463 -0.095062 22.584787
v 7.178080 -0.095062 23.090324
v 5.035715 -1.846837 15.353381
v 13.624463 1.283735 22.584787
v 19.384899 1.283735 16.792789
v 14.966731 -2.366498 11.878361
v 3.572767 1.283735 20.911949
v 8.590492 1.339519 14.248318
v 16.554634 0.594336 22.205187
v 6.033763 0.594336 13.913280
v 17.767178 -1.407130 11.870729
v 3.661864 0.594336 23.216257
v 7.178080 -1.473858 23.090324
v 17.969601 -1.473858 20.545435
v 3.572767 -1.473858 20.911949
v 7.178080 1.283735 23.090324
v 17.969597 1.283735 20.545437
v 9.453042 -2.116807 12.140886
v 4.409685 1.283735 16.748159
v 15.615260 1.339519 14.153925
v 16.554634 -0.784460 22.205187
v 6.659791 -1.157439 12.518501
v 18.652229 0.594336 13.433639
v 3.661864 -0.784460 23.216257
v 13.624463 -1.473858 22.584787
v 18.499851 -2.096528 15.229878
v 3.661864 1.283735 23.216257
v 3.661864 -1.473858 23.216257
v 5.335704 1.283735 14.888676
v 6.587759 -2.219815 12.099115
v 16.554634 1.283735 22.205187
v 16.554634 -1.473858 22.205187
v 19.385242 1.283735 14.699889
v 17.615143 -2.719198 11.574066
v 19.384563 -1.473858 18.885691
v 10.694295 -1.473858 22.964388
v 3.661864 -0.095062 23.216257
v 17.919220 -0.095062 12.167389
v 6.731822 -0.095062 12.937889
v 16.554634 -0.095062 22.205187
v 11.845275 1.395303 13.607962
v 3.483666 1.283735 18.607645
v 12.318322 -2.013798 12.182657
v 19.384563 1.283735 18.885691
v 10.694295 1.283735 22.964388
v 3.483666 -1.473858 18.607645
v 10.694295 -0.095062 22.964388
v 3.483666 -0.095062 18.607645
v 11.376586 -1.473858 17.945490
v 19.384563 -0.095062 18.885691
v 12.058877 -0.095062 12.926594
v 11.376586 1.283735 17.945490
v 10.694295 -0.784460 22.964388
v 10.694295 0.594336 22.964388
v 5.107743 -0.095062 15.772766
v 3.572767 -0.095062 20.911949
v 3.483666 -0.784460 18.607645
v 3.483666 0.594336 18.607645
v 11.847454 -1.743828 15.064072
v 11.035438 -1.473858 20.454939
v 15.380572 -1.473858 18.415590
v 7.430126 -1.473858 18.276567
v 17.969597 -0.095062 20.545437
v 18.651886 -0.095062 15.526539
v 19.384563 -0.784460 18.885691
v 19.384563 0.594336 18.885691
v 14.989045 -0.095062 12.546991
v 9.395349 -0.095062 12.932240
v 12.188598 -1.054430 12.554625
v 11.952077 0.650120 13.267277
v 11.610931 1.339519 15.776728
v 11.035438 1.283735 20.454939
v 7.430123 1.283735 18.276567
v 15.380572 1.283735 18.415590
v 14.502519 1.283735 20.500189
v 7.304101 1.283735 20.683443
v 8.010309 1.311627 16.262444
v 8.992919 0.622228 13.590279
v 9.424196 -1.105934 12.536564
v 14.977888 -1.230780 12.212675
v 19.018394 0.594336 16.159664
v 18.575871 -1.095795 15.378210
v 17.969597 -0.784460 20.545437
v 7.304101 -1.473858 20.683443
v 14.502519 -1.473858 20.500189
v 15.173653 -1.920178 15.146976
v 3.572767 0.594336 20.911949
v 3.572767 -0.784460 20.911949
v 5.071730 -0.970949 15.563073
v 13.624463 0.594336 22.584787
v 13.624463 -0.784460 22.584787
v 7.178080 -0.784460 23.090324
v 7.178080 0.594336 23.090324
v 4.758716 0.594336 16.260464
v 8.441584 -1.795333 15.208725
v 17.969597 0.594336 20.545437
v 15.302153 0.622228 13.350458
v 15.497917 1.311627 16.284758
v -20.453228 -0.095062 12.581917
v -26.076141 -0.095062 9.389075
v -23.516083 -1.846837 1.780123
v -20.453228 1.283735 12.581917
v -12.436754 1.283735 11.011564
v -13.343114 -2.366498 4.465546
v -27.842072 1.283735 5.564797
v -19.952469 1.339519 2.856343
v -17.813427 0.594336 13.909116
v -21.882561 0.594336 1.146414
v -11.019162 -1.407130 6.028177
v -29.059258 0.594336 7.523423
v -26.076141 -1.473858 9.389075
v -15.711505 -1.473858 13.327043
v -27.842072 -1.473858 5.564797
v -26.076141 1.283735 9.389075
v -15.711505 1.283735 13.327044
v -18.057308 -2.116807 1.593952
v -24.816067 1.283735 2.584718
v -14.080811 1.339519 6.713788
v -17.813427 -0.784460 13.909116
v -20.582584 -1.157439 0.341819
v -11.161676 0.594336 7.818621
v -29.059258 -0.784460 7.523423
v -20.453228 -1.473858 12.581917
v -12.294239 -2.096528 9.221119
v -29.059258 1.283735 7.523423
v -29.059258 -1.473858 7.523423
v -23.007248 1.283735 1.563265
v -20.407284 -2.219815 -0.045924
v -17.813427 1.283735 13.909116
v -17.813427 -1.473858 13.909116
v -11.263924 1.283735 9.278156
v -10.978895 -2.719198 5.697264
v -13.609584 -1.473858 12.744974
v -23.093029 -1.473858 11.254723
v -29.059258 -0.095062 7.523423
v -11.059428 -0.095062 6.359087
v -20.757874 -0.095062 0.729562
v -17.813427 -0.095062 13.909116
v -16.897697 1.395303 4.149415
v -26.624889 1.283735 3.606169
v -15.707332 -2.013798 3.233826
v -13.609584 1.283735 12.744974
v -23.093029 1.283735 11.254723
v -26.624889 -1.473858 3.606169
v -23.093029 -0.095062 11.254723
v -26.624889 -0.095062 3.606169
v -19.716030 -1.473858 7.479706
v -13.609584 -0.095062 12.744974
v -16.339031 -0.095062 3.704692
v -19.716030 1.283735 7.479706
v -23.093029 -0.784460 11.254723
v -23.093029 0.594336 11.254723
v -23.691383 -0.095062 2.167864
v -27.842072 -0.095062 5.564797
v -26.624889 -0.784460 3.606169
v -26.624889 0.594336 3.606169
v -17.711681 -1.743828 5.356765
v -21.404526 -1.473858 9.367214
v -16.662807 -1.473858 10.112339
v -23.170460 -1.473858 5.542938
v -15.711505 -0.095062 13.327044
v -12.334506 -0.095062 9.552029
v -13.609584 -0.784460 12.744974
v -13.609584 0.594336 12.744974
v -13.699229 -0.095062 5.031891
v -18.548454 -0.095062 2.217126
v -16.023182 -1.054430 3.469259
v -16.618362 0.650120 3.927054
v -18.306862 1.339519 5.814562
v -21.404526 1.283735 9.367214
v -23.170460 1.283735 5.542938
v -16.662807 1.283735 10.112339
v -18.558018 1.283735 11.347131
v -24.623299 1.283735 7.466006
v -21.561459 1.311627 4.199641
v -19.250465 0.622228 2.536733
v -18.302879 -1.105934 1.905540
v -13.521173 -1.230780 4.748717
v -12.385631 0.594336 10.281796
v -12.314373 -1.095795 9.386574
v -15.711505 -0.784460 13.327044
v -24.623299 -1.473858 7.466006
v -18.558018 -1.473858 11.347131
v -15.002959 -1.920178 7.288944
v -27.842072 0.594336 5.564797
v -27.842072 -0.784460 5.564797
v -23.603733 -0.970949 1.973995
v -20.453228 0.594336 12.581917
v -20.453228 -0.784460 12.581917
v -26.076141 -0.784460 9.389075
v -26.076141 0.594336 9.389075
v -24.253723 0.594336 2.376291
v -20.613884 -1.795333 3.568444
v -15.711505 0.594336 13.327044
v -13.890019 0.622228 5.872839
v -15.371806 1.311627 8.413063
v -20.453228 -0.095062 12.581917
v -26.076141 -0.095062 9.389075
v -23.516083 -1.846837 1.780123
v -20.453228 1.283735 12.581917
v -12.436754 1.283735 11.011564
v -13.343114 -2.366498 4.465546
v -27.842072 1.283735 5.564797
v -19.952469 1.339519 2.856343
v -17.813427 0.594336 13.909116
v -21.882561 0.594336 1.146414
v -11.019162 -1.407130 6.028177
v -29.059258 0.594336 7.523423
v -26.076141 -1.473858 9.389075
v -15.711505 -1.473858 13.327043
v -27.842072 -1.473858 5.564797
v -26.076141 1.283735 9.389075
v -15.711505 1.283735 13.327044
v -18.057308 -2.116807 1.593952
v -24.816067 1.283735 2.584718
v -14.080811 1.339519 6.713788
v -17.813427 -0.784460 13.909116
v -20.582584 -1.157439 0.341819
v -11.161676 0.594336 7.818621
v -29.059258 -0.784460 7.523423
v -20.453228 -1.473858 12.581917
v -12.294239 -2.096528 9.221119
v -29.059258 1.283735 7.523423
v -29.059258 -1.473858 7.523423
v -23.007248 1.283735 1.563265
v -20.407284 -2.219815 -0.045924
v -17.813427 1.283735 13.909116
v -17.813427 -1.473858 13.909116
v -11.263924 1.283735 9.278156
v -10.978895 -2.719198 5.697264
v -13.609584 -1.473858 12.744974
v -23.093029 -1.473858 11.254723
v -29.059258 -0.095062 7.523423
v -11.059428 -0.095062 6.359087
v -20.757874 -0.095062 0.729562
v -17.813427 -0.095062 13.909116
v -16.897697 1.395303 4.149415
v -26.624889 1.283735 3.606169
v -15.707332 -2.013798 3.233826
v -13.609584 1.283735 12.744974
v -23.093029 1.283735 11.254723
v -26.624889 -1.473858 3.606169
v -23.093029 -0.095062 11.254723
v -26.624889 -0.095062 3.606169
v -19.716030 -1.473858 7.479706
v -13.609584 -0.095062 12.744974
v -16.339031 -0.095062 3.704692
v -19.716030 1.283735 7.479706
v -23.093029 -0.784460 11.254723
v -23.093029 0.594336 11.254723
v -23.691383 -0.095062 2.167864
v -27.842072 -0.095062 5.564797
v -26.624889 -0.784460 3.606169
v -26.624889 0.594336 3.606169
v -17.711681 -1.743828 5.356765
v -21.404526 -1.473858 9.367214
v -16.662807 -1.473858 10.112339
v -23.170460 -1.473858 5.542938
v -15.711505 -0.095062 13.327044
v -12.334506 -0.095062 9.552029
v -13.609584 -0.784460 12.744974
v -13.609584 0.594336 12.744974
v -13.699229 -0.095062 5.031891
v -18.548454 -0.095062 2.217126
v -16.023182 -1.054430 3.469259
v -16.618362 0.650120 3.927054
v -18.306862 1.339519 5.814562
v -21.404526 1.283735 9.367214
v -23.170460 1.283735 5.542938
v -16.662807 1.283735 10.112339
v -18.558018 1.283735 11.347131
v -24.623299 1.283735 7.466006
v -21.561459 1.311627 4.199641
v -19.250465 0.622228 2.536733
v -18.302879 -1.105934 1.905540
v -13.521173 -1.230780 4.748717
v -12.385631 0.594336 10.281796
v -12.314373 -1.095795 9.386574
v -15.711505 -0.784460 13.327044
v -24.623299 -1.473858 7.466006
v -18.558018 -1.473858 11.347131
v -15.002959 -1.920178 7.288944
v -27.842072 0.594336 5.564797
v -27.842072 -0.784460 5.564797
v -23.603733 -0.970949 1.973995
v -20.453228 0.594336 12.581917
v -20.453228 -0.784460 12.581917
v -26.076141 -0.784460 9.389075
v -26.076141 0.594336 9.389075
v -24.253723 0.594336 2.376291
v -20.613884 -1.795333 3.568444
v -15.711505 0.594336 13.327044
v -13.890019 0.622228 5.872839
v -15.371806 1.311627 8.413063
vn 0.9946 -0.0545 0.0880
vn 0.9953 -0.0530 0.0810
vn 0.9967 -0.0239 0.0774
vn 0.8009 -0.5684 0.1882
vn 0.8727 -0.4751 0.1123
vn 0.9761 -0.1771 0.1256
vn 0.1805 0.3120 -0.9328
vn 0.2075 0.3142 -0.9264
vn 0.2051 0.2542 -0.9451
vn 0.2796 0.3659 -0.8877
vn 0.2808 0.3659 -0.8873
vn 0.2812 0.3630 -0.8883
vn 0.0975 0.7122 -0.6951
vn 0.1610 0.7426 -0.6501
vn 0.2024 0.5509 -0.8096
vn -0.0074 0.9998 0.0183
vn -0.0047 1.0000 0.0048
vn -0.0120 0.9999 -0.0011
vn -0.0000 1.0000 -0.0000
vn 0.0074 0.9999 0.0096
vn 0.2338 0.8109 -0.5364
vn 0.5297 -0.0000 0.8482
vn -0.0110 -0.9925 0.1221
vn -0.6935 -0.1780 -0.6981
vn -0.2675 -0.0000 0.9636
vn -0.1769 -0.0000 0.9842
vn -0.6736 0.2018 -0.7110
vn -0.9643 -0.0000 -0.2648
vn -0.1134 -0.9902 0.0813
vn -0.0000 -1.0000 -0.0000
vn 0.9959 -0.0248 0.0868
vn 0.9486 -0.2244 0.2230
vn 0.1818 0.2551 -0.9497
vn 0.2800 0.3629 -0.8887
vn 0.1226 0.5256 -0.8419
vn -0.0143 0.9998 0.0146
vn -0.1268 -0.9830 0.1324
vn -0.0817 -0.9868 0.1398
vn -0.0655 -0.9929 0.0991
vn -0.6939 0.1950 -0.6932
vn -0.7117 0.0808 -0.6978
vn -0.6878 0.0844 -0.7210
vn -0.6776 -0.1432 -0.7214
vn -0.6838 -0.0482 -0.7280
vn -0.7035 -0.0602 -0.7081
vn -0.0068 -0.9941 0.1084
vn -0.0179 -0.9947 0.1016
vn -0.0210 -0.9933 0.1139
vn 0.1459 0.8321 -0.5351
vn 0.2042 0.6188 -0.7585
vn 0.3120 0.6076 -0.7304
vn 0.0017 0.9998 0.0216
vn -0.0048 0.9998 0.0190
vn 0.0006 1.0000 0.0072
vn 0.9748 -0.0545 -0.2163
vn 0.9733 -0.0530 -0.2232
vn 0.9736 -0.0239 -0.2270
vn 0.8204 -0.5684 -0.0623
vn 0.8659 -0.4751 -0.1564
vn 0.9685 -0.1771 -0.1749
vn -0.1094 0.3120 -0.9438
vn -0.0818 0.3142 -0.9458
vn -0.0897 0.2542 -0.9630
vn -0.0013 0.3659 -0.9307
vn -0.0002 0.3659 -0.9307
vn -0.0001 0.3630 -0.9318
vn -0.1169 0.7122 -0.6921
vn -0.0427 0.7426 -0.6683
vn -0.0514 0.5509 -0.8330
vn -0.0016 0.9998 0.0197
vn -0.0030 1.0000 0.0060
vn -0.0118 0.9999 0.0026
vn 0.0100 0.9999 0.0069
vn 0.0610 0.8109 -0.5820
vn 0.7610 -0.0000 0.6488
vn 0.0264 -0.9925 0.1197
vn -0.8719 -0.1780 -0.4562
vn 0.0358 -0.0000 0.9994
vn 0.1285 -0.0000 0.9917
vn -0.8568 0.2018 -0.4745
vn -0.9993 -0.0000 0.0386
vn -0.0835 -0.9902 0.1117
vn 0.9757 -0.0248 -0.2179
vn 0.9717 -0.2244 -0.0738
vn -0.1133 0.2551 -0.9603
vn -0.0013 0.3629 -0.9318
vn -0.1372 0.5256 -0.8396
vn -0.0092 0.9998 0.0182
vn -0.0810 -0.9830 0.1645
vn -0.0357 -0.9868 0.1580
vn -0.0325 -0.9929 0.1142
vn -0.8707 0.1950 -0.4514
vn -0.8891 0.0808 -0.4504
vn -0.8733 0.0844 -0.4798
vn -0.8637 -0.1432 -0.4832
vn -0.8717 -0.0482 -0.4877
vn -0.8844 -0.0602 -0.4628
vn 0.0262 -0.9941 0.1054
vn 0.0136 -0.9947 0.1023
vn 0.0144 -0.9933 0.1149
vn -0.0225 0.8321 -0.5542
vn -0.0343 0.6188 -0.7848
vn 0.0770 0.6076 -0.7905
vn 0.0082 0.9998 0.0201
vn 0.0011 0.9998 0.0195
vn 0.0027 1.0000 0.0067
vn 0.9287 -0.0545 0.3669
vn 0.9313 -0.0530 0.3604
vn 0.9337 -0.0239 0.3574
vn 0.7144 -0.5684 0.4080
vn 0.8049 -0.4751 0.3556
vn 0.9002 -0.1771 0.3977
vn 0.4381 0.3120 -0.8431
vn 0.4621 0.3142 -0.8293
vn 0.4652 0.2542 -0.8479
vn 0.5203 0.3659 -0.7716
vn 0.5213 0.3659 -0.7710
vn 0.5220 0.3630 -0.7718
vn 0.2909 0.7122 -0.6388
vn 0.3390 0.7426 -0.5776
vn 0.4241 0.5509 -0.7188
vn -0.0123 0.9998 0.0154
vn -0.0059 1.0000 0.0033
vn -0.0112 0.9999 -0.0044
vn 0.0044 0.9999 0.0113
vn 0.3765 0.8109 -0.4479
vn 0.2669 -0.0000 0.9637
vn -0.0452 -0.9925 0.1140
vn -0.4666 -0.1780 -0.8664
vn -0.5302 -0.0000 0.8478
vn -0.4492 -0.0000 0.8934
vn -0.4439 0.2018 -0.8731
vn -0.8494 -0.0000 -0.5278
vn -0.1318 -0.9902 0.0458
vn 0.9302 -0.0248 0.3661
vn 0.8462 -0.2244 0.4833
vn 0.4442 0.2551 -0.8589
vn 0.5210 0.3629 -0.7726
vn 0.3567 0.5256 -0.7724
vn -0.0178 0.9998 0.0099
vn -0.1592 -0.9830 0.0909
vn -0.1180 -0.9868 0.1109
vn -0.0909 -0.9929 0.0764
vn -0.4684 0.1950 -0.8617
vn -0.4841 0.0808 -0.8713
vn -0.4546 0.0844 -0.8867
vn -0.4447 -0.1432 -0.8842
vn -0.4488 -0.0482 -0.8923
vn -0.4733 -0.0602 -0.8788
vn -0.0373 -0.9941 0.1020
vn -0.0460 -0.9947 0.0923
vn -0.0525 -0.9933 0.1033
vn 0.2919 0.8321 -0.4716
vn 0.4113 0.6188 -0.6693
vn 0.5067 0.6076 -0.6117
vn -0.0045 0.9998 0.0212
vn -0.0100 0.9998 0.0168
vn -0.0015 1.0000 0.0070
vt 1.556511 8.952091
vt 0.500000 8.952091
vt 0.500000 7.895580
vt 1.556511 7.895580
vt 2.613023 8.952091
vt 2.613023 7.895580
vt 1.556511 6.839068
vt 2.613023 6.839068
vt -0.556511 8.952091
vt -1.613023 8.952091
vt -1.613023 7.895580
vt -0.556511 7.895580
vt -0.556511 6.839068
vt 0.500000 6.839068
vt 1.556511 -5.839068
vt 0.500000 -5.839068
vt 0.500000 -6.895580
vt 1.556511 -6.895580
vt 2.613023 -5.839068
vt 2.613023 -6.895580
vt 1.556511 -7.952091
vt 2.613023 -7.952091
vt 1.556511 -3.726046
vt 0.500000 -3.726046
vt 0.500000 -4.782557
vt 1.556511 -4.782557
vt 2.613023 -3.726046
vt 2.613023 -4.782557
vt -0.556511 -3.726046
vt -1.613023 -3.726046
vt -1.613023 -4.782557
vt -0.556511 -4.782557
vt -0.556511 -5.839068
vt -2.669534 -1.613023
vt -3.726046 -1.613023
vt -3.726046 -2.669534
vt -2.669534 -2.669534
vt -1.613023 -1.613023
vt -1.613023 -2.669534
vt -2.669534 -3.726046
vt -2.669534 0.500000
vt -3.726046 0.500000
vt -3.726046 -0.556511
vt -2.669534 -0.556511
vt -1.613023 0.500000
vt -1.613023 -0.556511
vt -4.782557 0.500000
vt -5.839068 0.500000
vt -5.839068 -0.556511
vt -4.782557 -0.556511
vt -4.782557 -1.613023
vt -4.782557 -2.669534
vt -5.839068 -2.669534
vt -5.839068 -3.726046
vt -4.782557 -3.726046
vt -0.556511 -6.895580
vt -1.613023 -6.895580
vt -1.613023 -7.952091
vt -0.556511 -7.952091
vt -0.556511 5.782557
vt -1.613023 5.782557
vt -1.613023 4.726046
vt -0.556511 4.726046
vt 3.669534 -2.669534
vt 2.613023 -2.669534
vt 3.669534 -3.726046
vt -0.556511 -2.669534
vt -0.556511 1.556511
vt -1.613023 1.556511
vt -0.556511 0.500000
vt 1.556511 1.556511
vt 0.500000 1.556511
vt 0.500000 0.500000
vt 1.556511 0.500000
vt 1.556511 3.669534
vt 0.500000 3.669534
vt 0.500000 2.613023
vt 1.556511 2.613023
vt -0.556511 3.669534
vt -1.613023 3.669534
vt -1.613023 2.613023
vt -0.556511 2.613023
vt 1.556511 -2.669534
vt 0.500000 -2.669534
vt 1.556511 -0.556511
vt 0.500000 -0.556511
vt 0.500000 -1.613023
vt 1.556511 -1.613023
vt -0.556511 -0.556511
vt -0.556511 -1.613023
vt 5.782557 -2.669534
vt 4.726046 -2.669534
vt 4.726046 -3.726046
vt 5.782557 -3.726046
vt 5.782557 -0.556511
vt 4.726046 -0.556511
vt 4.726046 -1.613023
vt 5.782557 -1.613023
vt 3.669534 -0.556511
vt 2.613023 -0.556511
vt 2.613023 -1.613023
vt 3.669534 -1.613023
vt 1.556511 5.782557
vt 0.500000 5.782557
vt 0.500000 4.726046
vt 1.556511 4.726046
vt -1.613023 6.839068
vt 0.500000 -7.952091
vt -1.613023 -5.839068
vt -3.726046 -3.726046
vt -5.839068 -1.613023
vt 2.613023 5.782557
vt 2.613023 4.726046
vt 4.726046 0.500000
vt 3.669534 0.500000
vt 2.613023 0.500000
vt 6.839068 -0.556511
vt 6.839068 -1.613023
vt 6.839068 0.500000
vt 5.782557 0.500000
vt 6.839068 -2.669534
vt 6.839068 -3.726046
vt 2.613023 3.669534
vt 2.613023 2.613023
vt 2.613023 1.556511
s 0
usemtl grass
f 611/134/58 621/135/58 593/136/58 669/137/58
f 598/154/67 617/155/67 596/156/67 666/157/67
f 661/159/70 640/160/70 659/161/70 665/162/70
f 630/163/71 661/159/71 665/162/71 607/164/71
f 607/164/72 665/162/72 596/165/72 617/155/72
f 604/166/73 633/167/73 660/168/73 664/169/73
f 615/170/73 604/166/73 664/169/73 595/171/73
f 595/171/73 664/169/73 661/159/73 630/163/73
f 592/172/73 619/173/73 605/174/73 663/175/73
f 633/167/73 592/172/73 663/175/73 660/168/73
f 660/168/73 663/175/73 662/176/73 640/160/73
f 686/177/74 593/178/74 621/179/74 608/180/74
f 685/181/75 608/182/75 621/183/75 611/184/75
f 684/185/76 605/186/76 619/187/76 597/188/76
f 682/192/78 607/164/78 617/155/78 598/154/78
f 681/193/79 604/194/79 615/170/79 600/195/79
f 678/204/80 592/205/80 633/206/80 642/207/80
f 675/214/82 595/171/82 630/163/82 646/215/82
f 669/137/86 593/136/86 632/232/86 654/138/86
f 666/157/89 596/156/89 629/234/89 658/158/89
f 665/162/90 659/161/90 629/235/90 596/165/90
f 664/169/73 660/168/73 640/160/73 661/159/73
f 663/175/73 605/174/73 632/236/73 662/176/73
f 600/195/82 615/170/82 595/171/82 675/214/82
f 597/188/80 619/187/80 592/205/80 678/204/80
f 642/207/79 633/206/79 604/194/79 681/193/79
f 646/215/99 630/163/99 607/164/99 682/192/99
f 654/138/76 632/232/76 605/186/76 684/185/76
f 658/158/105 629/234/105 608/182/105 685/181/105
f 659/161/106 686/177/106 608/180/106 629/235/106
f 640/160/107 662/176/107 686/177/107 659/161/107
f 662/176/108 632/236/108 593/178/108 686/177/108
f 857/159/124 836/160/124 855/161/124 861/162/124
f 826/163/125 857/159/125 861/162/125 803/164/125
f 803/164/126 861/162/126 792/165/126 813/155/126
f 800/166/73 829/167/73 856/168/73 860/169/73
f 811/170/73 800/166/73 860/169/73 791/171/73
f 791/171/73 860/169/73 857/159/73 826/163/73
f 788/172/73 815/173/73 801/174/73 859/175/73
f 829/167/73 788/172/73 859/175/73 856/168/73
f 856/168/73 859/175/73 858/176/73 836/160/73
f 882/177/127 789/178/127 817/179/127 804/180/127
f 881/181/128 804/182/128 817/183/128 807/184/128
f 862/157/141 792/156/141 825/234/141 854/158/141
f 861/162/142 855/161/142 825/235/142 792/165/142
f 860/169/73 856/168/73 836/160/73 857/159/73
f 859/175/73 801/174/73 828/236/73 858/176/73
f 854/158/157 825/234/157 804/182/157 881/181/157
f 855/161/158 882/177/158 804/180/158 825/235/158
f 836/160/159 858/176/159 882/177/159 855/161/159
f 858/176/160 828/236/160 789/178/160 882/177/160
f 990/154/173 1009/155/173 988/156/173 1058/157/173
f 1053/159/176 1032/160/176 1051/161/176 1057/162/176
f 1022/163/177 1053/159/177 1057/162/177 999/164/177
f 999/164/178 1057/162/178 988/165/178 1009/155/178
f 996/166/73 1025/167/73 1052/168/73 1056/169/73
f 1007/170/73 996/166/73 1056/169/73 987/171/73
f 987/171/73 1056/169/73 1053/159/73 1022/163/73
f 984/172/73 1011/173/73 997/174/73 1055/175/73
f 1025/167/73 984/172/73 1055/175/73 1052/168/73
f 1052/168/73 1055/175/73 1054/176/73 1032/160/73
f 1078/177/179 985/178/179 1013/179/179 1000/180/179
f 1058/157/193 988/156/193 1021/234/193 1050/158/193
f 1057/162/194 1051/161/194 1021/235/194 988/165/194
f 1056/169/73 1052/168/73 1032/160/73 1053/159/73
f 1055/175/73 997/174/73 1024/236/73 1054/176/73
f 1050/158/209 1021/234/209 1000/182/209 1077/181/209
f 1051/161/210 1078/177/210 1000/180/210 1021/235/210
f 1032/160/211 1054/176/211 1078/177/211 1051/161/211
f 1054/176/212 1024/236/212 985/178/212 1078/177/212
usemtl dirt
f 599/126/55 626/127/55 652/128/55 670/129/55
f 622/130/56 599/126/56 670/129/56 614/131/56
f 614/131/57 670/129/57 653/132/57 623/133/57
f 626/127/59 611/134/59 669/137/59 652/128/59
f 652/128/60 669/137/60 654/138/60 638/139/60
f 657/140/61 639/141/61 655/142/61 668/143/61
f 631/144/62 657/140/62 668/143/62 594/145/62
f 594/145/63 668/143/63 599/146/63 622/147/63
f 610/148/64 627/149/64 656/150/64 667/151/64
f 618/152/65 610/148/65 667/151/65 606/153/65
f 606/153/66 667/151/66 657/140/66 631/144/66
f 627/149/68 598/154/68 666/157/68 656/150/68
f 656/150/69 666/157/69 658/158/69 639/141/69
f 683/189/77 591/190/77 618/152/77 606/191/77
f 680/196/79 590/197/79 625/198/79 612/199/79
f 679/200/80 589/201/80 635/202/80 641/203/80
f 677/208/81 643/209/81 627/149/81 610/148/81
f 676/210/82 644/211/82 636/212/82 645/213/82
f 674/216/83 647/217/83 631/218/83 594/219/83
f 673/220/84 648/221/84 637/222/84 649/223/84
f 672/224/84 603/225/84 634/226/84 650/227/84
f 671/228/76 651/229/76 628/230/76 609/231/76
f 670/129/85 652/128/85 638/139/85 653/132/85
f 668/143/87 655/142/87 626/233/87 599/146/87
f 667/151/88 656/150/88 639/141/88 657/140/88
f 602/237/76 671/228/76 609/231/76 620/238/76
f 623/133/76 653/132/76 671/228/76 602/237/76
f 653/132/76 638/139/76 651/229/76 671/228/76
f 648/221/84 672/224/84 650/227/84 637/222/84
f 624/239/84 601/240/84 672/224/84 648/221/84
f 601/240/84 616/241/84 603/225/84 672/224/84
f 602/242/84 673/220/84 649/223/84 623/243/84
f 620/244/84 613/245/84 673/220/84 602/242/84
f 613/245/84 624/239/84 648/221/84 673/220/84
f 614/246/91 674/216/91 594/219/91 622/247/91
f 623/243/92 649/223/92 674/216/92 614/246/92
f 649/223/93 637/222/93 647/217/93 674/216/93
f 644/211/82 675/214/82 646/215/82 636/212/82
f 625/198/82 600/195/82 675/214/82 644/211/82
f 603/225/82 676/210/82 645/213/82 634/226/82
f 616/241/82 612/199/82 676/210/82 603/225/82
f 612/199/82 625/198/82 644/211/82 676/210/82
f 591/190/94 677/208/94 610/148/94 618/152/94
f 634/226/95 645/213/95 677/208/95 591/190/95
f 645/213/96 636/212/96 643/209/96 677/208/96
f 589/201/80 678/204/80 642/207/80 635/202/80
f 628/230/80 597/188/80 678/204/80 589/201/80
f 613/248/80 679/200/80 641/203/80 624/249/80
f 620/238/80 609/231/80 679/200/80 613/248/80
f 609/231/80 628/230/80 589/201/80 679/200/80
f 601/250/79 680/196/79 612/199/79 616/241/79
f 624/249/79 641/203/79 680/196/79 601/250/79
f 641/203/79 635/202/79 590/197/79 680/196/79
f 590/197/79 681/193/79 600/195/79 625/198/79
f 635/202/79 642/207/79 681/193/79 590/197/79
f 643/209/97 682/192/97 598/154/97 627/149/97
f 636/212/98 646/215/98 682/192/98 643/209/98
f 647/217/100 683/189/100 606/191/100 631/218/100
f 637/222/101 650/227/101 683/189/101 647/217/101
f 650/227/102 634/226/102 591/190/102 683/189/102
f 651/229/76 684/185/76 597/188/76 628/230/76
f 638/139/76 654/138/76 684/185/76 651/229/76
f 655/142/103 685/181/103 611/184/103 626/233/103
f 639/141/104 658/158/104 685/181/104 655/142/104
f 795/126/109 822/127/109 848/128/109 866/129/109
f 818/130/110 795/126/110 866/129/110 810/131/110
f 810/131/111 866/129/111 849/132/111 819/133/111
f 807/134/112 817/135/112 789/136/112 865/137/112
f 822/127/113 807/134/113 865/137/113 848/128/113
f 848/128/114 865/137/114 850/138/114 834/139/114
f 853/140/115 835/141/115 851/142/115 864/143/115
f 827/144/116 853/140/116 864/143/116 790/145/116
f 790/145/117 864/143/117 795/146/117 818/147/117
f 806/148/118 823/149/118 852/150/118 863/151/118
f 814/152/119 806/148/119 863/151/119 802/153/119
f 802/153/120 863/151/120 853/140/120 827/144/120
f 794/154/121 813/155/121 792/156/121 862/157/121
f 823/149/122 794/154/122 862/157/122 852/150/122
f 852/150/123 862/157/123 854/158/123 835/141/123
f 880/185/129 801/186/129 815/187/129 793/188/129
f 879/189/130 787/190/130 814/152/130 802/191/130
f 878/192/131 803/164/131 813/155/131 794/154/131
f 877/193/132 800/194/132 811/170/132 796/195/132
f 876/196/132 786/197/132 821/198/132 808/199/132
f 875/200/133 785/201/133 831/202/133 837/203/133
f 874/204/133 788/205/133 829/206/133 838/207/133
f 873/208/134 839/209/134 823/149/134 806/148/134
f 872/210/135 840/211/135 832/212/135 841/213/135
f 871/214/135 791/171/135 826/163/135 842/215/135
f 870/216/136 843/217/136 827/218/136 790/219/136
f 869/220/84 844/221/84 833/222/84 845/223/84
f 868/224/84 799/225/84 830/226/84 846/227/84
f 867/228/129 847/229/129 824/230/129 805/231/129
f 866/129/137 848/128/137 834/139/137 849/132/137
f 865/137/138 789/136/138 828/232/138 850/138/138
f 864/143/139 851/142/139 822/233/139 795/146/139
f 863/151/140 852/150/140 835/141/140 853/140/140
f 798/237/129 867/228/129 805/231/129 816/238/129
f 819/133/129 849/132/129 867/228/129 798/237/129
f 849/132/129 834/139/129 847/229/129 867/228/129
f 844/221/84 868/224/84 846/227/84 833/222/84
f 820/239/84 797/240/84 868/224/84 844/221/84
f 797/240/84 812/241/84 799/225/84 868/224/84
f 798/242/84 869/220/84 845/223/84 819/243/84
f 816/244/84 809/245/84 869/220/84 798/242/84
f 809/245/84 820/239/84 844/221/84 869/220/84
f 810/246/143 870/216/143 790/219/143 818/247/143
f 819/243/144 845/223/144 870/216/144 810/246/144
f 845/223/145 833/222/145 843/217/145 870/216/145
f 840/211/135 871/214/135 842/215/135 832/212/135
f 821/198/135 796/195/135 871/214/135 840/211/135
f 796/195/135 811/170/135 791/171/135 871/214/135
f 799/225/135 872/210/135 841/213/135 830/226/135
f 812/241/135 808/199/135 872/210/135 799/225/135
f 808/199/135 821/198/135 840/211/135 872/210/135
f 787/190/146 873/208/146 806/148/146 814/152/146
f 830/226/147 841/213/147 873/208/147 787/190/147
f 841/213/148 832/212/148 839/209/148 873/208/148
f 785/201/133 874/204/133 838/207/133 831/202/133
f 824/230/133 793/188/133 874/204/133 785/201/133
f 793/188/133 815/187/133 788/205/133 874/204/133
f 809/248/133 875/200/133 837/203/133 820/249/133
f 816/238/133 805/231/133 875/200/133 809/248/133
f 805/231/133 824/230/133 785/201/133 875/200/133
f 797/250/132 876/196/132 808/199/132 812/241/132
f 820/249/132 837/203/132 876/196/132 797/250/132
f 837/203/132 831/202/132 786/197/132 876/196/132
f 786/197/132 877/193/132 796/195/132 821/198/132
f 831/202/132 838/207/132 877/193/132 786/197/132
f 838/207/132 829/206/132 800/194/132 877/193/132
f 839/209/149 878/192/149 794/154/149 823/149/149
f 832/212/150 842/215/150 878/192/150 839/209/150
f 842/215/151 826/163/151 803/164/151 878/192/151
f 843/217/152 879/189/152 802/191/152 827/218/152
f 833/222/153 846/227/153 879/189/153 843/217/153
f 846/227/154 830/226/154 787/190/154 879/189/154
f 847/229/129 880/185/129 793/188/129 824/230/129
f 834/139/129 850/138/129 880/185/129 847/229/129
f 850/138/129 828/232/129 801/186/129 880/185/129
f 851/142/155 881/181/155 807/184/155 822/233/155
f 835/141/156 854/158/156 881/181/156 851/142/156
f 991/126/161 1018/127/161 1044/128/161 1062/129/161
f 1014/130/162 991/126/162 1062/129/162 1006/131/162
f 1006/131/163 1062/129/163 1045/132/163 1015/133/163
f 1003/134/164 1013/135/164 985/136/164 1061/137/164
f 1018/127/165 1003/134/165 1061/137/165 1044/128/165
f 1044/128/166 1061/137/166 1046/138/166 1030/139/166
f 1049/140/167 1031/141/167 1047/142/167 1060/143/167
f 1023/144/168 1049/140/168 1060/143/168 986/145/168
f 986/145/169 1060/143/169 991/146/169 1014/147/169
f 1002/148/170 1019/149/170 1048/150/170 1059/151/170
f 1010/152/171 1002/148/171 1059/151/171 998/153/171
f 998/153/172 1059/151/172 1049/140/172 1023/144/172
f 1019/149/174 990/154/174 1058/157/174 1048/150/174
f 1048/150/175 1058/157/175 1050/158/175 1031/141/175
f 1077/181/180 1000/182/180 1013/183/180 1003/184/180
f 1076/185/181 997/186/181 1011/187/181 989/188/181
f 1075/189/182 983/190/182 1010/152/182 998/191/182
f 1074/192/183 999/164/183 1009/155/183 990/154/183
f 1073/193/184 996/194/184 1007/170/184 992/195/184
f 1072/196/184 982/197/184 1017/198/184 1004/199/184
f 1071/200/185 981/201/185 1027/202/185 1033/203/185
f 1070/204/185 984/205/185 1025/206/185 1034/207/185
f 1069/208/186 1035/209/186 1019/149/186 1002/148/186
f 1068/210/187 1036/211/187 1028/212/187 1037/213/187
f 1067/214/187 987/171/187 1022/163/187 1038/215/187
f 1066/216/188 1039/217/188 1023/218/188 986/219/188
f 1065/220/84 1040/221/84 1029/222/84 1041/223/84
f 1064/224/84 995/225/84 1026/226/84 1042/227/84
f 1063/228/181 1043/229/181 1020/230/181 1001/231/181
f 1062/129/189 1044/128/189 1030/139/189 1045/132/189
f 1061/137/190 985/136/190 1024/232/190 1046/138/190
f 1060/143/191 1047/142/191 1018/233/191 991/146/191
f 1059/151/192 1048/150/192 1031/141/192 1049/140/192
f 994/237/181 1063/228/181 1001/231/181 1012/238/181
f 1015/133/181 1045/132/181 1063/228/181 994/237/181
f 1045/132/181 1030/139/181 1043/229/181 1063/228/181
f 1040/221/84 1064/224/84 1042/227/84 1029/222/84
f 1016/239/84 993/240/84 1064/224/84 1040/221/84
f 993/240/84 1008/241/84 995/225/84 1064/224/84
f 994/242/84 1065/220/84 1041/223/84 1015/243/84
f 1012/244/84 1005/245/84 1065/220/84 994/242/84
f 1005/245/84 1016/239/84 1040/221/84 1065/220/84
f 1006/246/195 1066/216/195 986/219/195 1014/247/195
f 1015/243/196 1041/223/196 1066/216/196 1006/246/196
f 1041/223/197 1029/222/197 1039/217/197 1066/216/197
f 1036/211/187 1067/214/187 1038/215/187 1028/212/187
f 1017/198/187 992/195/187 1067/214/187 1036/211/187
f 992/195/187 1007/170/187 987/171/187 1067/214/187
f 995/225/187 1068/210/187 1037/213/187 1026/226/187
f 1008/241/187 1004/199/187 1068/210/187 995/225/187
f 1004/199/187 1017/198/187 1036/211/187 1068/210/187
f 983/190/198 1069/208/198 1002/148/198 1010/152/198
f 1026/226/199 1037/213/199 1069/208/199 983/190/199
f 1037/213/200 1028/212/200 1035/209/200 1069/208/200
f 981/201/185 1070/204/185 1034/207/185 1027/202/185
f 1020/230/185 989/188/185 1070/204/185 981/201/185
f 989/188/185 1011/187/185 984/205/185 1070/204/185
f 1005/248/185 1071/200/185 1033/203/185 1016/249/185
f 1012/238/185 1001/231/185 1071/200/185 1005/248/185
f 1001/231/185 1020/230/185 981/201/185 1071/200/185
f 993/250/184 1072/196/184 1004/199/184 1008/241/184
f 1016/249/184 1033/203/184 1072/196/184 993/250/184
f 1033/203/184 1027/202/184 982/197/184 1072/196/184
f 982/197/184 1073/193/184 992/195/184 1017/198/184
f 1027/202/184 1034/207/184 1073/193/184 982/197/184
f 1034/207/184 1025/206/184 996/194/184 1073/193/184
f 1035/209/201 1074/192/201 990/154/201 1019/149/201
f 1028/212/202 1038/215/202 1074/192/202 1035/209/202
f 1038/215/203 1022/163/203 999/164/203 1074/192/203
f 1039/217/204 1075/189/204 998/191/204 1023/218/204
f 1029/222/205 1042/227/205 1075/189/205 1039/217/205
f 1042/227/206 1026/226/206 983/190/206 1075/189/206
f 1043/229/181 1076/185/181 989/188/181 1020/230/181
f 1030/139/181 1046/138/181 1076/185/181 1043/229/181
f 1046/138/181 1024/232/181 997/186/181 1076/185/181
f 1047/142/207 1077/181/207 1003/184/207 1018/233/207
f 1031/141/208 1050/158/208 1077/181/208 1047/142/208
l 589 687
l 590 688
l 591 689
l 592 690
l 593 691
l 594 692
l 595 693
l 596 694
l 597 695
l 598 696
l 599 697
l 600 698
l 601 699
l 602 700
l 603 701
l 604 702
l 605 703
l 606 704
l 607 705
l 608 706
l 609 707
l 610 708
l 611 709
l 612 710
l 613 711
l 614 712
l 615 713
l 616 714
l 617 715
l 618 716
l 619 717
l 620 718
l 621 719
l 622 720
l 623 721
l 624 722
l 625 723
l 626 724
l 627 725
l 628 726
l 629 727
l 630 728
l 631 729
l 632 730
l 633 731
l 634 732
l 635 733
l 636 734
l 637 735
l 638 736
l 639 737
l 640 738
l 641 739
l 642 740
l 643 741
l 644 742
l 645 743
l 646 744
l 647 745
l 648 746
l 649 747
l 650 748
l 651 749
l 652 750
l 653 751
l 654 752
l 655 753
l 656 754
l 657 755
l 658 756
l 659 757
l 660 758
l 661 759
l 662 760
l 663 761
l 664 762
l 665 763
l 666 764
l 667 765
l 668 766
l 669 767
l 670 768
l 671 769
l 672 770
l 673 771
l 674 772
l 675 773
l 676 774
l 677 775
l 678 776
l 679 777
l 680 778
l 681 779
l 682 780
l 683 781
l 684 782
l 685 783
l 686 784
l 785 883
l 786 884
l 787 885
l 788 886
l 789 887
l 790 888
l 791 889
l 792 890
l 793 891
l 794 892
l 795 893
l 796 894
l 797 895
l 798 896
l 799 897
l 800 898
l 801 899
l 802 900
l 803 901
l 804 902
l 805 903
l 806 904
l 807 905
l 808 906
l 809 907
l 810 908
l 811 909
l 812 910
l 813 911
l 814 912
l 815 913
l 816 914
l 817 915
l 818 916
l 819 917
l 820 918
l 821 919
l 822 920
l 823 921
l 824 922
l 825 923
l 826 924
l 827 925
l 828 926
l 829 927
l 830 928
l 831 929
l 832 930
l 833 931
l 834 932
l 835 933
l 836 934
l 837 935
l 838 936
l 839 937
l 840 938
l 841 939
l 842 940
l 843 941
l 844 942
l 845 943
l 846 944
l 847 945
l 848 946
l 849 947
l 850 948
l 851 949
l 852 950
l 853 951
l 854 952
l 855 953
l 856 954
l 857 955
l 858 956
l 859 957
l 860 958
l 861 959
l 862 960
l 863 961
l 864 962
l 865 963
l 866 964
l 867 965
l 868 966
l 869 967
l 870 968
l 871 969
l 872 970
l 873 971
l 874 972
l 875 973
l 876 974
l 877 975
l 878 976
l 879 977
l 880 978
l 881 979
l 882 980
l 981 1079
l 982 1080
l 983 1081
l 984 1082
l 985 1083
l 986 1084
l 987 1085
l 988 1086
l 989 1087
l 990 1088
l 991 1089
l 992 1090
l 993 1091
l 994 1092
l 995 1093
l 996 1094
l 997 1095
l 998 1096
l 999 1097
l 1000 1098
l 1001 1099
l 1002 1100
l 1003 1101
l 1004 1102
l 1005 1103
l 1006 1104
l 1007 1105
l 1008 1106
l 1009 1107
l 1010 1108
l 1011 1109
l 1012 1110
l 1013 1111
l 1014 1112
l 1015 1113
l 1016 1114
l 1017 1115
l 1018 1116
l 1019 1117
l 1020 1118
l 1021 1119
l 1022 1120
l 1023 1121
l 1024 1122
l 1025 1123
l 1026 1124
l 1027 1125
l 1028 1126
l 1029 1127
l 1030 1128
l 1031 1129
l 1032 1130
l 1033 1131
l 1034 1132
l 1035 1133
l 1036 1134
l 1037 1135
l 1038 1136
l 1039 1137
l 1040 1138
l 1041 1139
l 1042 1140
l 1043 1141
l 1044 1142
l 1045 1143
l 1046 1144
l 1047 1145
l 1048 1146
l 1049 1147
l 1050 1148
l 1051 1149
l 1052 1150
l 1053 1151
l 1054 1152
l 1055 1153
l 1056 1154
l 1057 1155
l 1058 1156
l 1059 1157
l 1060 1158
l 1061 1159
l 1062 1160
l 1063 1161
l 1064 1162
l 1065 1163
l 1066 1164
l 1067 1165
l 1068 1166
l 1069 1167
l 1070 1168
l 1071 1169
l 1072 1170
l 1073 1171
l 1074 1172
l 1075 1173
l 1076 1174
l 1077 1175
l 1078 1176
